<svg width="287" height="272" viewBox="0 0 287 272" fill="none" xmlns="http://www.w3.org/2000/svg">
<path d="M127.595 75.2488C128.543 75.2952 129.491 75.3759 130.437 75.488C130.404 75.7599 130.596 76.0079 130.868 76.0437C131.811 76.167 132.752 76.3231 133.686 76.5095C133.955 76.5632 134.216 76.3887 134.271 76.1199C135.203 76.3168 136.127 76.5454 137.042 76.8015C136.968 77.0652 137.119 77.3398 137.383 77.4167C138.299 77.6841 139.205 77.981 140.098 78.3054C140.356 78.3992 140.641 78.2663 140.736 78.0085C141.629 78.3444 142.509 78.7088 143.372 79.0984C143.258 79.348 143.367 79.6427 143.616 79.7585C144.484 80.162 145.334 80.5922 146.164 81.0476C146.405 81.1798 146.706 81.0926 146.84 80.8533C147.673 81.3236 148.485 81.8199 149.273 82.3396C149.122 82.5678 149.183 82.8761 149.41 83.03C149.805 83.2977 150.194 83.5717 150.575 83.8513C151.038 84.1905 151.492 84.5392 151.935 84.8962C152.148 85.0684 152.46 85.0354 152.634 84.824C153.575 85.6049 154.468 86.4263 155.305 87.2839C155.108 87.474 155.101 87.7869 155.289 87.9861C156.081 88.8235 156.818 89.6947 157.492 90.5955C157.657 90.8151 157.967 90.8606 158.188 90.699C158.904 91.6919 159.547 92.7198 160.106 93.78C159.863 93.9051 159.765 94.2037 159.888 94.449C160.399 95.469 160.832 96.5171 161.178 97.5886C161.262 97.8494 161.54 97.9924 161.801 97.9119C162.145 99.0708 162.39 100.257 162.526 101.468C162.255 101.495 162.054 101.736 162.078 102.009C162.113 102.406 162.134 102.805 162.145 103.207C161.906 103.245 161.724 103.451 161.724 103.7H161.581C161.581 103.445 161.391 103.237 161.145 103.206C161.134 102.82 161.113 102.436 161.078 102.054L161.06 101.955C160.993 101.732 160.776 101.58 160.535 101.601C160.533 101.602 160.53 101.602 160.527 101.602C160.399 100.517 160.173 99.448 159.856 98.3992C159.859 98.3984 159.862 98.399 159.864 98.3982C160.126 98.3116 160.269 98.0295 160.183 97.7673L160.051 97.3816C159.735 96.4844 159.355 95.6039 158.915 94.7429L158.86 94.658C158.715 94.4759 158.458 94.4152 158.242 94.5251C158.24 94.5263 158.238 94.5278 158.235 94.5291C157.725 93.5815 157.141 92.6568 156.488 91.7605C156.49 91.7595 156.492 91.7596 156.493 91.7585C156.713 91.5917 156.757 91.2774 156.59 91.0574L156.093 90.4216C155.585 89.791 155.044 89.1756 154.473 88.5769L154.396 88.5115C154.205 88.3788 153.94 88.3936 153.766 88.5603C153.764 88.5614 153.763 88.5621 153.762 88.5632C153.007 87.7976 152.199 87.0609 151.346 86.3542C151.347 86.3529 151.348 86.3517 151.35 86.3503C151.522 86.1352 151.488 85.8212 151.273 85.6482L150.637 85.1472C150.422 84.9822 150.204 84.8191 149.984 84.658L149.419 84.2517C149.229 84.1178 149.037 83.9852 148.844 83.8542C148.615 83.6996 148.304 83.7596 148.149 83.988C148.148 83.9896 148.148 83.9914 148.146 83.9929C147.408 83.5067 146.647 83.0414 145.866 82.6003C145.867 82.5992 145.869 82.5986 145.869 82.5974C146.002 82.3554 145.914 82.0516 145.672 81.9187L145.061 81.5896C144.446 81.2657 143.82 80.956 143.185 80.6609C142.934 80.5447 142.637 80.6537 142.521 80.9041C142.52 80.9054 142.519 80.9066 142.519 80.908C141.71 80.5438 140.886 80.2033 140.05 79.8884C140.05 79.8872 140.051 79.8858 140.052 79.8845C140.146 79.6251 140.012 79.3382 139.753 79.2439L139.098 79.0125C138.44 78.7854 137.775 78.5733 137.105 78.3777C136.84 78.3004 136.563 78.4526 136.485 78.7175C136.485 78.7188 136.485 78.7202 136.484 78.7214C135.627 78.482 134.761 78.2689 133.89 78.0837C133.89 78.0825 133.891 78.0811 133.892 78.0798C133.945 77.8092 133.77 77.546 133.499 77.4919C132.588 77.3098 131.67 77.1574 130.75 77.0369C130.477 77.0013 130.225 77.1941 130.189 77.4675C130.189 77.469 130.189 77.4709 130.188 77.4724C129.303 77.3676 128.415 77.293 127.527 77.2488C127.527 77.2471 127.528 77.2455 127.528 77.2439C127.538 76.9679 127.323 76.7355 127.047 76.7253C126.582 76.7083 126.117 76.7 125.652 76.7C125.42 76.7 125.188 76.7025 124.955 76.7068L124.258 76.7253C123.982 76.7355 123.766 76.9679 123.776 77.2439C123.776 77.2455 123.776 77.2472 123.776 77.2488C122.889 77.293 122.001 77.3676 121.115 77.4724C121.115 77.4709 121.115 77.469 121.115 77.4675C121.084 77.2281 120.887 77.0505 120.655 77.0339L120.555 77.0369C119.864 77.1273 119.175 77.2358 118.489 77.3611L117.806 77.4919C117.535 77.546 117.359 77.8092 117.413 78.0798C117.413 78.081 117.414 78.0826 117.414 78.0837C116.542 78.2689 115.677 78.482 114.819 78.7214C114.819 78.7203 114.82 78.7187 114.819 78.7175C114.752 78.4857 114.53 78.3401 114.299 78.3591L114.199 78.3777C113.306 78.6385 112.422 78.9276 111.552 79.2439C111.292 79.3382 111.159 79.6251 111.253 79.8845C111.253 79.8857 111.253 79.8873 111.254 79.8884C110.418 80.2033 109.594 80.5438 108.785 80.908C108.785 80.9068 108.785 80.9053 108.784 80.9041C108.682 80.685 108.442 80.5741 108.216 80.6277L108.12 80.6609C107.485 80.956 106.859 81.2657 106.244 81.5896L105.633 81.9187C105.391 82.0516 105.303 82.3554 105.436 82.5974C105.436 82.5984 105.437 82.5993 105.438 82.6003C104.656 83.0414 103.896 83.5066 103.157 83.9929C103.156 83.9915 103.156 83.9894 103.155 83.988C103.02 83.788 102.765 83.7172 102.55 83.8064L102.461 83.8542C102.074 84.116 101.694 84.3843 101.32 84.658C101.1 84.8191 100.883 84.9822 100.668 85.1472L100.031 85.6482C99.8163 85.8212 99.7822 86.1352 99.9551 86.3503C99.9561 86.3516 99.957 86.353 99.958 86.3542C99.1046 87.0609 98.297 87.7976 97.542 88.5632C97.541 88.5623 97.54 88.5612 97.5391 88.5603C97.3393 88.3698 97.0226 88.3772 96.832 88.5769C96.0702 89.3752 95.3624 90.203 94.7148 91.0574C94.548 91.2774 94.5915 91.5917 94.8115 91.7585C94.8127 91.7594 94.8143 91.7596 94.8154 91.7605C94.1625 92.6568 93.5791 93.5815 93.0684 94.5291C93.0663 94.528 93.0646 94.5262 93.0625 94.5251C92.8471 94.4152 92.5894 94.4759 92.4443 94.658L92.3896 94.7429C91.95 95.6039 91.5699 96.4844 91.2539 97.3816L91.1221 97.7673C91.0357 98.0295 91.1783 98.3116 91.4404 98.3982C91.4425 98.3989 91.4451 98.3985 91.4473 98.3992C91.1306 99.4479 90.9045 100.517 90.7764 101.602C90.7741 101.602 90.7718 101.602 90.7695 101.601C90.5287 101.58 90.3118 101.732 90.2451 101.955L90.2266 102.054C90.1922 102.436 90.1696 102.82 90.1592 103.206C89.9137 103.238 89.7236 103.446 89.7236 103.7H89.5811C89.5811 103.45 89.3981 103.244 89.1592 103.207C89.1658 102.946 89.1774 102.687 89.1943 102.428L89.2266 102.009C89.2504 101.735 89.0495 101.494 88.7773 101.468C88.9135 100.257 89.1588 99.0707 89.5029 97.9119C89.7314 97.9828 89.9726 97.8825 90.0859 97.6814L90.127 97.5886C90.4294 96.6509 90.7982 95.7314 91.2285 94.8328L91.417 94.449C91.5399 94.2034 91.4414 93.9048 91.1973 93.78C91.7566 92.7198 92.4002 91.6919 93.1162 90.699C93.3092 90.8407 93.5704 90.8239 93.7432 90.6707L93.8125 90.5955C94.3181 89.9199 94.8587 89.2612 95.4316 88.6208L96.0156 87.9861C96.2039 87.7868 96.1957 87.474 95.999 87.2839C96.8356 86.4263 97.7283 85.6049 98.6699 84.824C98.822 85.0093 99.0798 85.057 99.2852 84.9509L99.3701 84.8962C99.5915 84.7177 99.8155 84.541 100.042 84.3669L100.729 83.8513C100.92 83.7116 101.113 83.5731 101.307 83.4363L101.895 83.03C102.122 82.876 102.182 82.5678 102.03 82.3396C102.818 81.8199 103.63 81.3236 104.464 80.8533C104.598 81.0929 104.9 81.1799 105.141 81.0476C105.97 80.5922 106.821 80.162 107.688 79.7585C107.938 79.6426 108.046 79.3481 107.932 79.0984C108.795 78.7088 109.674 78.3444 110.567 78.0085C110.651 78.2343 110.88 78.3638 111.109 78.3298L111.207 78.3054C112.1 77.981 113.006 77.6841 113.922 77.4167C114.186 77.3398 114.336 77.0653 114.262 76.8015C115.177 76.5454 116.101 76.3169 117.032 76.1199C117.081 76.3551 117.287 76.5182 117.519 76.5193L117.619 76.5095C118.319 76.3697 119.023 76.2468 119.729 76.1423L120.437 76.0437C120.709 76.0079 120.9 75.7599 120.867 75.488C121.812 75.3759 122.761 75.2953 123.709 75.2488C123.721 75.5228 123.952 75.7363 124.227 75.7263C124.702 75.7089 125.177 75.7 125.652 75.7C126.127 75.7 126.603 75.7089 127.078 75.7263C127.353 75.7363 127.582 75.5228 127.595 75.2488Z" fill="white" stroke="#0F0F11" stroke-linecap="round" stroke-linejoin="round" stroke-dasharray="3 4"/>
<mask id="path-2-outside-1_3504_4704" maskUnits="userSpaceOnUse" x="118.627" y="66.9527" width="18.6703" height="18.6703" fill="black">
<rect fill="white" x="118.627" y="66.9527" width="18.6703" height="18.6703"/>
<path fill-rule="evenodd" clip-rule="evenodd" d="M132.697 74.3519L130.163 76.6989L132.512 79.2332L130.555 81.0469L128.207 78.5126L125.674 80.8615L123.86 78.9045L126.394 76.5566L124.047 74.0233L126.003 72.2105L128.35 74.7429L130.885 72.396L132.697 74.3519Z"/>
</mask>
<path fill-rule="evenodd" clip-rule="evenodd" d="M132.697 74.3519L130.163 76.6989L132.512 79.2332L130.555 81.0469L128.207 78.5126L125.674 80.8615L123.86 78.9045L126.394 76.5566L124.047 74.0233L126.003 72.2105L128.35 74.7429L130.885 72.396L132.697 74.3519Z" fill="#0F0F11"/>
<path d="M132.697 74.3519L134.735 76.5526L136.936 74.5139L134.897 72.3132L132.697 74.3519ZM130.163 76.6989L128.124 74.4981L125.923 76.5374L127.963 78.7381L130.163 76.6989ZM132.512 79.2332L134.551 81.4335L136.752 79.3942L134.712 77.1939L132.512 79.2332ZM130.555 81.0469L128.354 83.0858L130.394 85.2869L132.594 83.2473L130.555 81.0469ZM128.207 78.5126L130.408 76.4738L128.368 74.2722L126.168 76.3127L128.207 78.5126ZM125.674 80.8615L123.474 82.9008L125.513 85.1015L127.714 83.0614L125.674 80.8615ZM123.86 78.9045L121.821 76.7042L119.621 78.7435L121.66 80.9438L123.86 78.9045ZM126.394 76.5566L128.433 78.7569L130.633 76.7181L128.594 74.5178L126.394 76.5566ZM124.047 74.0233L122.007 71.823L119.807 73.8619L121.846 76.0622L124.047 74.0233ZM126.003 72.2105L128.202 70.1708L126.163 67.9714L123.963 70.0102L126.003 72.2105ZM128.35 74.7429L126.151 76.7826L128.189 78.9812L130.389 76.944L128.35 74.7429ZM130.885 72.396L133.086 70.3573L131.047 68.1568L128.846 70.1949L130.885 72.396ZM132.697 74.3519L130.658 72.1512L128.124 74.4981L130.163 76.6989L132.202 78.8996L134.735 76.5526L132.697 74.3519ZM130.163 76.6989L127.963 78.7381L130.312 81.2725L132.512 79.2332L134.712 77.1939L132.364 74.6596L130.163 76.6989ZM132.512 79.2332L130.473 77.0329L128.516 78.8466L130.555 81.0469L132.594 83.2473L134.551 81.4335L132.512 79.2332ZM130.555 81.0469L132.756 79.0081L130.408 76.4738L128.207 78.5126L126.007 80.5515L128.354 83.0858L130.555 81.0469ZM128.207 78.5126L126.168 76.3127L123.634 78.6616L125.674 80.8615L127.714 83.0614L130.247 80.7125L128.207 78.5126ZM125.674 80.8615L127.874 78.8223L126.061 76.8653L123.86 78.9045L121.66 80.9438L123.474 82.9008L125.674 80.8615ZM123.86 78.9045L125.899 81.1049L128.433 78.7569L126.394 76.5566L124.354 74.3563L121.821 76.7042L123.86 78.9045ZM126.394 76.5566L128.594 74.5178L126.247 71.9845L124.047 74.0233L121.846 76.0622L124.193 78.5955L126.394 76.5566ZM124.047 74.0233L126.086 76.2237L128.042 74.4108L126.003 72.2105L123.963 70.0102L122.007 71.823L124.047 74.0233ZM126.003 72.2105L123.803 74.2502L126.151 76.7826L128.35 74.7429L130.55 72.7032L128.202 70.1708L126.003 72.2105ZM128.35 74.7429L130.389 76.944L132.923 74.5971L130.885 72.396L128.846 70.1949L126.312 72.5418L128.35 74.7429ZM130.885 72.396L128.684 74.4347L130.496 76.3906L132.697 74.3519L134.897 72.3132L133.086 70.3573L130.885 72.396Z" fill="white" mask="url(#path-2-outside-1_3504_4704)"/>
<g filter="url(#filter0_ddddddd_3504_4704)">
<rect x="22.6523" y="65.635" width="72" height="92" rx="6" transform="rotate(-15 22.6523 65.635)" fill="white" shape-rendering="crispEdges"/>
<mask id="path-5-inside-2_3504_4704" fill="white">
<rect x="37.3496" y="74.1204" width="48" height="4" rx="1" transform="rotate(-15 37.3496 74.1204)"/>
</mask>
<rect x="37.3496" y="74.1204" width="48" height="4" rx="1" transform="rotate(-15 37.3496 74.1204)" fill="#0F0F11" stroke="#0F0F11" stroke-width="4" mask="url(#path-5-inside-2_3504_4704)"/>
<mask id="path-6-inside-3_3504_4704" fill="white">
<rect x="39.1621" y="80.8818" width="36" height="3" rx="1" transform="rotate(-15 39.1621 80.8818)"/>
</mask>
<rect x="39.1621" y="80.8818" width="36" height="3" rx="1" transform="rotate(-15 39.1621 80.8818)" fill="#0F0F11" stroke="#0F0F11" stroke-width="3" mask="url(#path-6-inside-3_3504_4704)"/>
<rect x="42.1026" y="89.9287" width="47" height="7" rx="1.5" transform="rotate(-15 42.1026 89.9287)" stroke="#0F0F11" stroke-opacity="0.24" stroke-dasharray="2 2"/>
<rect x="45.1133" y="103.098" width="6" height="6" rx="2" transform="rotate(-15 45.1133 103.098)" fill="#0F0F11" fill-opacity="0.24"/>
<rect x="55.291" y="102.442" width="30" height="2" rx="1" transform="rotate(-15 55.291 102.442)" fill="#0F0F11" fill-opacity="0.24"/>
<rect x="47.4434" y="111.792" width="6" height="6" rx="2" transform="rotate(-15 47.4434 111.792)" fill="#0F0F11" fill-opacity="0.24"/>
<rect x="57.6211" y="111.135" width="18" height="2" rx="1" transform="rotate(-15 57.6211 111.135)" fill="#0F0F11" fill-opacity="0.24"/>
<path d="M57.7639 138.604L59.5175 135.566L54.6106 136.881L54.2871 135.674L59.2133 134.354L56.1637 132.593L57.5064 132.233L61.3057 134.435L59.1066 138.244L57.7639 138.604ZM66.5321 136.699L64.9869 130.933L62.9005 131.492L62.6081 130.4L68.0269 128.948L68.3194 130.04L66.2426 130.596L67.7878 136.363L66.5321 136.699ZM71.2157 135.569C70.1339 135.859 69.2819 135.538 69.0412 134.64C68.8031 133.751 69.2269 133.13 70.2975 132.605L71.9166 131.809C71.7225 131.085 71.2835 130.799 70.6266 130.975C70.0278 131.135 69.7647 131.506 69.7886 132.058L68.5174 132.337C68.4303 131.201 69.0954 130.36 70.3704 130.018C71.8386 129.625 72.8088 130.193 73.1763 131.565L73.6784 133.439C73.7534 133.719 73.8707 133.77 74.0639 133.718L74.2281 133.674L74.4688 134.573C74.3871 134.615 74.1991 134.686 74.0252 134.733C73.465 134.883 72.9953 134.792 72.7304 134.19C72.6172 134.81 72.0561 135.343 71.2157 135.569ZM71.2262 134.603C72.0472 134.383 72.4291 133.722 72.2194 132.939L72.1418 132.65L70.8813 133.277C70.3592 133.531 70.1991 133.822 70.2949 134.18C70.4036 134.585 70.7336 134.735 71.2262 134.603ZM77.0525 134.005C75.5263 134.414 74.5402 133.901 74.1911 132.908L75.441 132.511C75.6728 133.029 76.0937 133.247 76.8085 133.056C77.3784 132.903 77.6892 132.633 77.5805 132.227C77.4873 131.88 77.2624 131.774 76.2718 131.864C74.6152 132.018 74.0087 131.725 73.7732 130.846C73.5169 129.89 74.0821 129.024 75.5214 128.638C76.9123 128.265 77.8264 128.818 78.2282 129.776L76.9977 130.168C76.771 129.67 76.3352 129.435 75.7557 129.59C75.1761 129.745 74.9466 130.086 75.0475 130.463C75.1588 130.878 75.4733 130.97 76.2893 130.886C77.9794 130.702 78.62 131.007 78.8504 131.867C79.1169 132.861 78.3758 133.65 77.0525 134.005ZM79.9086 133.115L78.071 126.257L79.3073 125.926L80.3866 129.954L81.8782 127.059L83.4044 126.65L81.9602 129.335L84.8541 131.79L83.4632 132.163L81.3455 130.287L80.7645 131.364L81.145 132.784L79.9086 133.115Z" fill="#0F0F11"/>
</g>
<g filter="url(#filter1_ddddddd_3504_4704)">
<rect x="75.5312" y="101" width="72" height="92" rx="6" transform="rotate(6.16457 75.5312 101)" fill="white" shape-rendering="crispEdges"/>
<mask id="path-14-inside-4_3504_4704" fill="white">
<rect x="86.1738" y="114.219" width="48" height="4" rx="1" transform="rotate(6.16457 86.1738 114.219)"/>
</mask>
<rect x="86.1738" y="114.219" width="48" height="4" rx="1" transform="rotate(6.16457 86.1738 114.219)" fill="#0F0F11" stroke="#0F0F11" stroke-width="4" mask="url(#path-14-inside-4_3504_4704)"/>
<mask id="path-15-inside-5_3504_4704" fill="white">
<rect x="85.4219" y="121.179" width="32" height="3" rx="1" transform="rotate(6.16457 85.4219 121.179)"/>
</mask>
<rect x="85.4219" y="121.179" width="32" height="3" rx="1" transform="rotate(6.16457 85.4219 121.179)" fill="#0F0F11" stroke="#0F0F11" stroke-width="3" mask="url(#path-15-inside-5_3504_4704)"/>
<rect x="84.8985" y="130.678" width="47" height="7" rx="1.5" transform="rotate(6.16457 84.8985 130.678)" stroke="#0F0F11" stroke-opacity="0.24" stroke-dasharray="2 2"/>
<rect x="82.9531" y="144.046" width="6" height="6" rx="2" transform="rotate(6.16457 82.9531 144.046)" fill="#0F0F11" fill-opacity="0.24"/>
<rect x="92.6797" y="147.108" width="30" height="2" rx="1" transform="rotate(6.16457 92.6797 147.108)" fill="#0F0F11" fill-opacity="0.24"/>
<rect x="81.9863" y="152.994" width="6" height="6" rx="2" transform="rotate(6.16457 81.9863 152.994)" fill="#0F0F11" fill-opacity="0.24"/>
<rect x="91.7129" y="156.056" width="18" height="2" rx="1" transform="rotate(6.16457 91.7129 156.056)" fill="#0F0F11" fill-opacity="0.24"/>
<path d="M81.93 181.724L84.662 179.524L79.6114 178.979L79.7456 177.736L84.8161 178.284L82.6079 175.541L83.9898 175.69L86.738 179.115L83.312 181.873L81.93 181.724ZM90.7943 183.114L91.4354 177.178L89.2879 176.946L89.4092 175.823L94.9868 176.425L94.8654 177.549L92.7278 177.318L92.0868 183.253L90.7943 183.114ZM95.5703 183.75C94.4567 183.63 93.7779 183.024 93.8778 182.099C93.9766 181.184 94.5959 180.758 95.7838 180.655L97.5812 180.497C97.6617 179.752 97.3556 179.326 96.6796 179.253C96.0632 179.187 95.684 179.438 95.5067 179.962L94.2207 179.762C94.5498 178.671 95.4735 178.127 96.7859 178.269C98.2971 178.432 98.9966 179.313 98.8441 180.724L98.6358 182.653C98.6047 182.941 98.6955 183.032 98.8943 183.053L99.0634 183.071L98.9635 183.996C98.8719 184.006 98.6709 184.005 98.4919 183.985C97.9153 183.923 97.5103 183.668 97.4807 183.011C97.151 183.549 96.4352 183.844 95.5703 183.75ZM95.9286 182.854C96.7737 182.945 97.3686 182.466 97.4556 181.661L97.4878 181.362L96.0857 181.493C95.5072 181.541 95.2527 181.755 95.213 182.123C95.1679 182.54 95.4216 182.799 95.9286 182.854ZM101.578 184.399C100.007 184.23 99.2724 183.396 99.3056 182.343L100.614 182.424C100.644 182.991 100.957 183.346 101.693 183.426C102.28 183.489 102.667 183.35 102.712 182.932C102.751 182.575 102.579 182.395 101.623 182.121C100.022 181.666 99.5626 181.174 99.6604 180.269C99.7667 179.285 100.606 178.682 102.088 178.842C103.519 178.996 104.172 179.841 104.201 180.881L102.912 180.802C102.881 180.255 102.559 179.878 101.963 179.814C101.366 179.75 101.029 179.985 100.987 180.372C100.941 180.8 101.201 180.999 101.992 181.215C103.635 181.654 104.122 182.17 104.027 183.054C103.916 184.078 102.94 184.546 101.578 184.399ZM104.563 184.601L105.325 177.542L106.598 177.679L106.15 181.825L108.586 179.664L110.157 179.834L107.84 181.817L109.653 185.151L108.221 184.996L106.924 182.482L105.993 183.277L105.835 184.738L104.563 184.601Z" fill="#0F0F11"/>
</g>
<g filter="url(#filter2_ddddddd_3504_4704)">
<rect x="152.52" y="75.1191" width="72" height="96" rx="6" fill="white" shape-rendering="crispEdges"/>
<rect x="164.52" y="87.1191" width="48" height="10" rx="2" fill="#0F0F11"/>
<g clip-path="url(#clip0_3504_4704)">
<path d="M188.742 84.7085C189.855 84.7636 190.91 85.2297 191.701 86.021C192.446 86.766 192.902 87.7452 192.999 88.7856H193.187C193.606 88.7857 194.009 88.9528 194.306 89.2495C194.603 89.5464 194.77 89.9497 194.77 90.3696V97.3696C194.769 97.7894 194.603 98.1919 194.306 98.4888C194.009 98.7856 193.606 98.9526 193.187 98.9526H183.853C183.433 98.9526 183.03 98.7856 182.733 98.4888C182.437 98.1919 182.27 97.7894 182.27 97.3696V90.3696L182.277 90.2124C182.313 89.8501 182.474 89.5092 182.733 89.2495C183.03 88.9528 183.433 88.7857 183.853 88.7856H184.04C184.137 87.7452 184.593 86.766 185.338 86.021C186.182 85.1771 187.326 84.7026 188.52 84.7026L188.742 84.7085ZM185.437 95.7856H186.937V94.7622C186.761 94.5739 186.617 94.3557 186.518 94.1147C186.335 93.6742 186.303 93.1857 186.427 92.7251C186.503 92.4424 186.635 92.1803 186.812 91.9526H185.437V95.7856ZM188.52 87.8696C188.166 87.8696 187.827 88.0102 187.577 88.2603C187.428 88.409 187.32 88.5895 187.255 88.7856H189.784C189.719 88.5895 189.611 88.409 189.462 88.2603C189.212 88.0102 188.873 87.8696 188.52 87.8696ZM190.103 95.7856H191.603V91.9526H190.227C190.404 92.1803 190.537 92.4424 190.612 92.7251C190.736 93.1857 190.704 93.6742 190.521 94.1147C190.422 94.3557 190.278 94.5739 190.103 94.7622V95.7856Z" fill="#0F0F11" stroke="white" stroke-width="2"/>
</g>
<rect x="165.02" y="103.619" width="47" height="7" rx="1.5" stroke="#0F0F11" stroke-opacity="0.64" stroke-dasharray="2 2"/>
<rect x="164.52" y="121.119" width="6" height="6" rx="2" fill="#0F0F11"/>
<rect x="174.52" y="123.119" width="30" height="2" rx="1" fill="#0F0F11"/>
<rect x="164.52" y="130.119" width="6" height="6" rx="2" fill="#0F0F11"/>
<rect x="174.52" y="132.119" width="18" height="2" rx="1" fill="#0F0F11"/>
<path d="M165.33 156.919C165.25 156.239 165.11 155.009 165.11 154.209V152.019H166.41V154.209C166.41 155.009 166.28 156.239 166.2 156.919H165.33ZM165 159.119V157.719H166.46V159.119H165ZM169.514 159.119V152.019H171.874C174.134 152.019 175.404 153.299 175.404 155.579C175.404 157.849 174.164 159.119 171.934 159.119H169.514ZM170.814 157.989H171.874C173.354 157.989 174.064 157.199 174.064 155.579C174.064 153.939 173.354 153.149 171.874 153.149H170.814V157.989ZM178.631 159.239C177.031 159.239 176.011 158.139 176.011 156.449C176.011 154.769 177.031 153.659 178.601 153.659C180.131 153.659 181.131 154.719 181.131 156.519V156.809H177.341C177.381 157.749 177.871 158.219 178.641 158.219C179.211 158.219 179.591 157.949 179.751 157.479L181.061 157.559C180.771 158.599 179.861 159.239 178.631 159.239ZM177.341 155.949H179.811C179.751 155.079 179.281 154.669 178.601 154.669C177.911 154.669 177.441 155.119 177.341 155.949ZM183.46 159.239C182.34 159.239 181.6 158.709 181.6 157.779C181.6 156.859 182.17 156.369 183.34 156.139L185.11 155.789C185.11 155.039 184.76 154.649 184.08 154.649C183.46 154.649 183.11 154.939 182.99 155.479L181.69 155.419C181.9 154.299 182.76 153.659 184.08 153.659C185.6 153.659 186.39 154.459 186.39 155.879V157.819C186.39 158.109 186.49 158.189 186.69 158.189H186.86V159.119C186.77 159.139 186.57 159.159 186.39 159.159C185.81 159.159 185.38 158.949 185.28 158.299C185.01 158.869 184.33 159.239 183.46 159.239ZM183.72 158.309C184.57 158.309 185.11 157.769 185.11 156.959V156.659L183.73 156.939C183.16 157.049 182.93 157.289 182.93 157.659C182.93 158.079 183.21 158.309 183.72 158.309ZM189.233 159.239C187.873 159.239 187.023 158.159 187.023 156.449C187.023 154.739 187.893 153.659 189.233 153.659C189.983 153.659 190.573 153.989 190.863 154.539V152.019H192.143V159.119H190.923L190.893 158.329C190.593 158.899 189.973 159.239 189.233 159.239ZM189.623 158.199C190.413 158.199 190.863 157.579 190.863 156.449C190.863 155.309 190.423 154.699 189.623 154.699C188.843 154.699 188.353 155.359 188.353 156.449C188.353 157.519 188.853 158.199 189.623 158.199ZM194.455 159.119C193.675 159.119 193.175 158.749 193.175 157.859V152.019H194.455V157.729C194.455 158.009 194.595 158.129 194.855 158.129H195.245V159.119H194.455ZM195.746 153.069V151.929H197.076V153.069H195.746ZM195.766 159.119V153.779H197.046V159.119H195.766ZM198.23 159.119V153.779H199.39L199.42 154.689C199.71 153.959 200.31 153.659 201.02 153.659C202.2 153.659 202.84 154.489 202.84 155.689V159.119H201.56V156.099C201.56 155.199 201.32 154.699 200.63 154.699C199.94 154.699 199.51 155.199 199.51 156.099V159.119H198.23ZM206.119 159.239C204.519 159.239 203.499 158.139 203.499 156.449C203.499 154.769 204.519 153.659 206.089 153.659C207.619 153.659 208.619 154.719 208.619 156.519V156.809H204.829C204.869 157.749 205.359 158.219 206.129 158.219C206.699 158.219 207.079 157.949 207.239 157.479L208.549 157.559C208.259 158.599 207.349 159.239 206.119 159.239ZM204.829 155.949H207.299C207.239 155.079 206.769 154.669 206.089 154.669C205.399 154.669 204.929 155.119 204.829 155.949Z" fill="#0F0F11"/>
</g>
<defs>
<filter id="filter0_ddddddd_3504_4704" x="-1.34766" y="45.5" width="141.357" height="181" filterUnits="userSpaceOnUse" color-interpolation-filters="sRGB">
<feFlood flood-opacity="0" result="BackgroundImageFix"/>
<feColorMatrix in="SourceAlpha" type="matrix" values="0 0 0 0 0 0 0 0 0 0 0 0 0 0 0 0 0 0 127 0" result="hardAlpha"/>
<feMorphology radius="0.5" operator="dilate" in="SourceAlpha" result="effect1_dropShadow_3504_4704"/>
<feOffset dy="1"/>
<feGaussianBlur stdDeviation="0.5"/>
<feComposite in2="hardAlpha" operator="out"/>
<feColorMatrix type="matrix" values="0 0 0 0 0.2 0 0 0 0 0.2 0 0 0 0 0.2 0 0 0 0.04 0"/>
<feBlend mode="normal" in2="BackgroundImageFix" result="effect1_dropShadow_3504_4704"/>
<feColorMatrix in="SourceAlpha" type="matrix" values="0 0 0 0 0 0 0 0 0 0 0 0 0 0 0 0 0 0 127 0" result="hardAlpha"/>
<feMorphology radius="1.5" operator="erode" in="SourceAlpha" result="effect2_dropShadow_3504_4704"/>
<feOffset dy="3"/>
<feGaussianBlur stdDeviation="1.5"/>
<feComposite in2="hardAlpha" operator="out"/>
<feColorMatrix type="matrix" values="0 0 0 0 0.2 0 0 0 0 0.2 0 0 0 0 0.2 0 0 0 0.02 0"/>
<feBlend mode="normal" in2="effect1_dropShadow_3504_4704" result="effect2_dropShadow_3504_4704"/>
<feColorMatrix in="SourceAlpha" type="matrix" values="0 0 0 0 0 0 0 0 0 0 0 0 0 0 0 0 0 0 127 0" result="hardAlpha"/>
<feMorphology radius="3" operator="erode" in="SourceAlpha" result="effect3_dropShadow_3504_4704"/>
<feOffset dy="6"/>
<feGaussianBlur stdDeviation="3"/>
<feComposite in2="hardAlpha" operator="out"/>
<feColorMatrix type="matrix" values="0 0 0 0 0.2 0 0 0 0 0.2 0 0 0 0 0.2 0 0 0 0.04 0"/>
<feBlend mode="normal" in2="effect2_dropShadow_3504_4704" result="effect3_dropShadow_3504_4704"/>
<feColorMatrix in="SourceAlpha" type="matrix" values="0 0 0 0 0 0 0 0 0 0 0 0 0 0 0 0 0 0 127 0" result="hardAlpha"/>
<feMorphology radius="6" operator="erode" in="SourceAlpha" result="effect4_dropShadow_3504_4704"/>
<feOffset dy="12"/>
<feGaussianBlur stdDeviation="6"/>
<feComposite in2="hardAlpha" operator="out"/>
<feColorMatrix type="matrix" values="0 0 0 0 0.2 0 0 0 0 0.2 0 0 0 0 0.2 0 0 0 0.04 0"/>
<feBlend mode="normal" in2="effect3_dropShadow_3504_4704" result="effect4_dropShadow_3504_4704"/>
<feColorMatrix in="SourceAlpha" type="matrix" values="0 0 0 0 0 0 0 0 0 0 0 0 0 0 0 0 0 0 127 0" result="hardAlpha"/>
<feMorphology radius="12" operator="erode" in="SourceAlpha" result="effect5_dropShadow_3504_4704"/>
<feOffset dy="24"/>
<feGaussianBlur stdDeviation="12"/>
<feComposite in2="hardAlpha" operator="out"/>
<feColorMatrix type="matrix" values="0 0 0 0 0.2 0 0 0 0 0.2 0 0 0 0 0.2 0 0 0 0.04 0"/>
<feBlend mode="normal" in2="effect4_dropShadow_3504_4704" result="effect5_dropShadow_3504_4704"/>
<feColorMatrix in="SourceAlpha" type="matrix" values="0 0 0 0 0 0 0 0 0 0 0 0 0 0 0 0 0 0 127 0" result="hardAlpha"/>
<feMorphology radius="24" operator="erode" in="SourceAlpha" result="effect6_dropShadow_3504_4704"/>
<feOffset dy="48"/>
<feGaussianBlur stdDeviation="24"/>
<feComposite in2="hardAlpha" operator="out"/>
<feColorMatrix type="matrix" values="0 0 0 0 0.2 0 0 0 0 0.2 0 0 0 0 0.2 0 0 0 0.04 0"/>
<feBlend mode="normal" in2="effect5_dropShadow_3504_4704" result="effect6_dropShadow_3504_4704"/>
<feColorMatrix in="SourceAlpha" type="matrix" values="0 0 0 0 0 0 0 0 0 0 0 0 0 0 0 0 0 0 127 0" result="hardAlpha"/>
<feMorphology radius="0.5" operator="erode" in="SourceAlpha" result="effect7_dropShadow_3504_4704"/>
<feOffset dy="-1"/>
<feGaussianBlur stdDeviation="0.5"/>
<feComposite in2="hardAlpha" operator="out"/>
<feColorMatrix type="matrix" values="0 0 0 0 0.2 0 0 0 0 0.2 0 0 0 0 0.2 0 0 0 0.06 0"/>
<feBlend mode="normal" in2="effect6_dropShadow_3504_4704" result="effect7_dropShadow_3504_4704"/>
<feBlend mode="normal" in="SourceGraphic" in2="effect7_dropShadow_3504_4704" result="shape"/>
</filter>
<filter id="filter1_ddddddd_3504_4704" x="41.6523" y="99.5" width="129.463" height="172.7" filterUnits="userSpaceOnUse" color-interpolation-filters="sRGB">
<feFlood flood-opacity="0" result="BackgroundImageFix"/>
<feColorMatrix in="SourceAlpha" type="matrix" values="0 0 0 0 0 0 0 0 0 0 0 0 0 0 0 0 0 0 127 0" result="hardAlpha"/>
<feMorphology radius="0.5" operator="dilate" in="SourceAlpha" result="effect1_dropShadow_3504_4704"/>
<feOffset dy="1"/>
<feGaussianBlur stdDeviation="0.5"/>
<feComposite in2="hardAlpha" operator="out"/>
<feColorMatrix type="matrix" values="0 0 0 0 0.2 0 0 0 0 0.2 0 0 0 0 0.2 0 0 0 0.04 0"/>
<feBlend mode="normal" in2="BackgroundImageFix" result="effect1_dropShadow_3504_4704"/>
<feColorMatrix in="SourceAlpha" type="matrix" values="0 0 0 0 0 0 0 0 0 0 0 0 0 0 0 0 0 0 127 0" result="hardAlpha"/>
<feMorphology radius="1.5" operator="erode" in="SourceAlpha" result="effect2_dropShadow_3504_4704"/>
<feOffset dy="3"/>
<feGaussianBlur stdDeviation="1.5"/>
<feComposite in2="hardAlpha" operator="out"/>
<feColorMatrix type="matrix" values="0 0 0 0 0.2 0 0 0 0 0.2 0 0 0 0 0.2 0 0 0 0.02 0"/>
<feBlend mode="normal" in2="effect1_dropShadow_3504_4704" result="effect2_dropShadow_3504_4704"/>
<feColorMatrix in="SourceAlpha" type="matrix" values="0 0 0 0 0 0 0 0 0 0 0 0 0 0 0 0 0 0 127 0" result="hardAlpha"/>
<feMorphology radius="3" operator="erode" in="SourceAlpha" result="effect3_dropShadow_3504_4704"/>
<feOffset dy="6"/>
<feGaussianBlur stdDeviation="3"/>
<feComposite in2="hardAlpha" operator="out"/>
<feColorMatrix type="matrix" values="0 0 0 0 0.2 0 0 0 0 0.2 0 0 0 0 0.2 0 0 0 0.04 0"/>
<feBlend mode="normal" in2="effect2_dropShadow_3504_4704" result="effect3_dropShadow_3504_4704"/>
<feColorMatrix in="SourceAlpha" type="matrix" values="0 0 0 0 0 0 0 0 0 0 0 0 0 0 0 0 0 0 127 0" result="hardAlpha"/>
<feMorphology radius="6" operator="erode" in="SourceAlpha" result="effect4_dropShadow_3504_4704"/>
<feOffset dy="12"/>
<feGaussianBlur stdDeviation="6"/>
<feComposite in2="hardAlpha" operator="out"/>
<feColorMatrix type="matrix" values="0 0 0 0 0.2 0 0 0 0 0.2 0 0 0 0 0.2 0 0 0 0.04 0"/>
<feBlend mode="normal" in2="effect3_dropShadow_3504_4704" result="effect4_dropShadow_3504_4704"/>
<feColorMatrix in="SourceAlpha" type="matrix" values="0 0 0 0 0 0 0 0 0 0 0 0 0 0 0 0 0 0 127 0" result="hardAlpha"/>
<feMorphology radius="12" operator="erode" in="SourceAlpha" result="effect5_dropShadow_3504_4704"/>
<feOffset dy="24"/>
<feGaussianBlur stdDeviation="12"/>
<feComposite in2="hardAlpha" operator="out"/>
<feColorMatrix type="matrix" values="0 0 0 0 0.2 0 0 0 0 0.2 0 0 0 0 0.2 0 0 0 0.04 0"/>
<feBlend mode="normal" in2="effect4_dropShadow_3504_4704" result="effect5_dropShadow_3504_4704"/>
<feColorMatrix in="SourceAlpha" type="matrix" values="0 0 0 0 0 0 0 0 0 0 0 0 0 0 0 0 0 0 127 0" result="hardAlpha"/>
<feMorphology radius="24" operator="erode" in="SourceAlpha" result="effect6_dropShadow_3504_4704"/>
<feOffset dy="48"/>
<feGaussianBlur stdDeviation="24"/>
<feComposite in2="hardAlpha" operator="out"/>
<feColorMatrix type="matrix" values="0 0 0 0 0.2 0 0 0 0 0.2 0 0 0 0 0.2 0 0 0 0.04 0"/>
<feBlend mode="normal" in2="effect5_dropShadow_3504_4704" result="effect6_dropShadow_3504_4704"/>
<feColorMatrix in="SourceAlpha" type="matrix" values="0 0 0 0 0 0 0 0 0 0 0 0 0 0 0 0 0 0 127 0" result="hardAlpha"/>
<feMorphology radius="0.5" operator="erode" in="SourceAlpha" result="effect7_dropShadow_3504_4704"/>
<feOffset dy="-1"/>
<feGaussianBlur stdDeviation="0.5"/>
<feComposite in2="hardAlpha" operator="out"/>
<feColorMatrix type="matrix" values="0 0 0 0 0.2 0 0 0 0 0.2 0 0 0 0 0.2 0 0 0 0.06 0"/>
<feBlend mode="normal" in2="effect6_dropShadow_3504_4704" result="effect7_dropShadow_3504_4704"/>
<feBlend mode="normal" in="SourceGraphic" in2="effect7_dropShadow_3504_4704" result="shape"/>
</filter>
<filter id="filter2_ddddddd_3504_4704" x="128.52" y="73.6191" width="120" height="169.5" filterUnits="userSpaceOnUse" color-interpolation-filters="sRGB">
<feFlood flood-opacity="0" result="BackgroundImageFix"/>
<feColorMatrix in="SourceAlpha" type="matrix" values="0 0 0 0 0 0 0 0 0 0 0 0 0 0 0 0 0 0 127 0" result="hardAlpha"/>
<feMorphology radius="0.5" operator="dilate" in="SourceAlpha" result="effect1_dropShadow_3504_4704"/>
<feOffset dy="1"/>
<feGaussianBlur stdDeviation="0.5"/>
<feComposite in2="hardAlpha" operator="out"/>
<feColorMatrix type="matrix" values="0 0 0 0 0.2 0 0 0 0 0.2 0 0 0 0 0.2 0 0 0 0.04 0"/>
<feBlend mode="normal" in2="BackgroundImageFix" result="effect1_dropShadow_3504_4704"/>
<feColorMatrix in="SourceAlpha" type="matrix" values="0 0 0 0 0 0 0 0 0 0 0 0 0 0 0 0 0 0 127 0" result="hardAlpha"/>
<feMorphology radius="1.5" operator="erode" in="SourceAlpha" result="effect2_dropShadow_3504_4704"/>
<feOffset dy="3"/>
<feGaussianBlur stdDeviation="1.5"/>
<feComposite in2="hardAlpha" operator="out"/>
<feColorMatrix type="matrix" values="0 0 0 0 0.2 0 0 0 0 0.2 0 0 0 0 0.2 0 0 0 0.02 0"/>
<feBlend mode="normal" in2="effect1_dropShadow_3504_4704" result="effect2_dropShadow_3504_4704"/>
<feColorMatrix in="SourceAlpha" type="matrix" values="0 0 0 0 0 0 0 0 0 0 0 0 0 0 0 0 0 0 127 0" result="hardAlpha"/>
<feMorphology radius="3" operator="erode" in="SourceAlpha" result="effect3_dropShadow_3504_4704"/>
<feOffset dy="6"/>
<feGaussianBlur stdDeviation="3"/>
<feComposite in2="hardAlpha" operator="out"/>
<feColorMatrix type="matrix" values="0 0 0 0 0.2 0 0 0 0 0.2 0 0 0 0 0.2 0 0 0 0.04 0"/>
<feBlend mode="normal" in2="effect2_dropShadow_3504_4704" result="effect3_dropShadow_3504_4704"/>
<feColorMatrix in="SourceAlpha" type="matrix" values="0 0 0 0 0 0 0 0 0 0 0 0 0 0 0 0 0 0 127 0" result="hardAlpha"/>
<feMorphology radius="6" operator="erode" in="SourceAlpha" result="effect4_dropShadow_3504_4704"/>
<feOffset dy="12"/>
<feGaussianBlur stdDeviation="6"/>
<feComposite in2="hardAlpha" operator="out"/>
<feColorMatrix type="matrix" values="0 0 0 0 0.2 0 0 0 0 0.2 0 0 0 0 0.2 0 0 0 0.04 0"/>
<feBlend mode="normal" in2="effect3_dropShadow_3504_4704" result="effect4_dropShadow_3504_4704"/>
<feColorMatrix in="SourceAlpha" type="matrix" values="0 0 0 0 0 0 0 0 0 0 0 0 0 0 0 0 0 0 127 0" result="hardAlpha"/>
<feMorphology radius="12" operator="erode" in="SourceAlpha" result="effect5_dropShadow_3504_4704"/>
<feOffset dy="24"/>
<feGaussianBlur stdDeviation="12"/>
<feComposite in2="hardAlpha" operator="out"/>
<feColorMatrix type="matrix" values="0 0 0 0 0.2 0 0 0 0 0.2 0 0 0 0 0.2 0 0 0 0.04 0"/>
<feBlend mode="normal" in2="effect4_dropShadow_3504_4704" result="effect5_dropShadow_3504_4704"/>
<feColorMatrix in="SourceAlpha" type="matrix" values="0 0 0 0 0 0 0 0 0 0 0 0 0 0 0 0 0 0 127 0" result="hardAlpha"/>
<feMorphology radius="24" operator="erode" in="SourceAlpha" result="effect6_dropShadow_3504_4704"/>
<feOffset dy="48"/>
<feGaussianBlur stdDeviation="24"/>
<feComposite in2="hardAlpha" operator="out"/>
<feColorMatrix type="matrix" values="0 0 0 0 0.2 0 0 0 0 0.2 0 0 0 0 0.2 0 0 0 0.04 0"/>
<feBlend mode="normal" in2="effect5_dropShadow_3504_4704" result="effect6_dropShadow_3504_4704"/>
<feColorMatrix in="SourceAlpha" type="matrix" values="0 0 0 0 0 0 0 0 0 0 0 0 0 0 0 0 0 0 127 0" result="hardAlpha"/>
<feMorphology radius="0.5" operator="erode" in="SourceAlpha" result="effect7_dropShadow_3504_4704"/>
<feOffset dy="-1"/>
<feGaussianBlur stdDeviation="0.5"/>
<feComposite in2="hardAlpha" operator="out"/>
<feColorMatrix type="matrix" values="0 0 0 0 0.2 0 0 0 0 0.2 0 0 0 0 0.2 0 0 0 0.06 0"/>
<feBlend mode="normal" in2="effect6_dropShadow_3504_4704" result="effect7_dropShadow_3504_4704"/>
<feBlend mode="normal" in="SourceGraphic" in2="effect7_dropShadow_3504_4704" result="shape"/>
</filter>
<clipPath id="clip0_3504_4704">
<rect width="14" height="14" fill="white" transform="translate(181.52 85.1191)"/>
</clipPath>
</defs>
</svg>
