<svg width="280" height="271" viewBox="0 0 280 271" fill="none" xmlns="http://www.w3.org/2000/svg">
<g filter="url(#filter0_ddddddd_3504_4804)">
<path d="M66 155C66 152.791 67.7909 151 70 151H110C112.209 151 114 152.791 114 155V195C114 197.209 112.209 199 110 199H70C67.7909 199 66 197.209 66 195V155Z" fill="white" shape-rendering="crispEdges"/>
<g opacity="0.24">
<g clip-path="url(#clip0_3504_4804)">
<path d="M89.9965 165.695C92.5821 165.695 95.1677 165.707 97.7528 165.689C98.8563 165.682 99.9055 166.344 100.273 167.39C100.36 167.635 100.419 167.904 100.42 168.161C100.428 172.72 100.43 177.277 100.424 181.836C100.422 183.148 99.2669 184.277 97.921 184.306C97.6768 184.312 97.4327 184.308 97.1886 184.308C92.2078 184.308 87.2265 184.306 82.2457 184.31C81.394 184.31 80.7001 183.996 80.1576 183.367C79.7729 182.922 79.5738 182.399 79.5738 181.814C79.5722 177.274 79.5711 172.733 79.5744 168.193C79.5755 166.838 80.7353 165.702 82.1318 165.698C84.7532 165.69 87.3751 165.696 89.9965 165.696V165.695ZM98.6669 172.494C92.868 172.494 87.1131 172.494 81.3451 172.494C81.3402 172.578 81.3326 172.647 81.3326 172.715C81.3321 175.708 81.3321 178.7 81.3337 181.692C81.3337 181.787 81.3419 181.886 81.3695 181.977C81.4949 182.394 81.809 182.595 82.3233 182.595C87.4402 182.596 92.5572 182.592 97.6741 182.6C98.2964 182.601 98.6772 182.191 98.674 181.613C98.6577 178.674 98.6664 175.734 98.6664 172.795C98.6669 172.701 98.6669 172.606 98.6669 172.494ZM84.7792 169.083C84.7765 168.628 84.3756 168.249 83.9063 168.259C83.4414 168.269 83.0709 168.64 83.0736 169.091C83.0763 169.539 83.456 169.913 83.9145 169.92C84.3772 169.927 84.7819 169.535 84.7792 169.083ZM89.9873 169.089C89.9884 168.644 89.6086 168.269 89.147 168.26C88.6739 168.25 88.2822 168.624 88.2817 169.086C88.2811 169.534 88.6576 169.91 89.1171 169.921C89.5777 169.931 89.9862 169.541 89.9873 169.089ZM86.5266 168.259C86.0628 168.26 85.6847 168.623 85.6776 169.075C85.6706 169.533 86.0623 169.921 86.5294 169.92C86.984 169.919 87.3746 169.543 87.3833 169.099C87.3925 168.646 86.9981 168.259 86.5266 168.259Z" fill="#0F0F11"/>
<path d="M89.98 180.932C88.0096 180.932 86.0386 180.933 84.0682 180.929C83.9174 180.929 83.7563 180.92 83.618 180.868C83.2556 180.734 83.0472 180.469 83.0462 180.084C83.0424 178.385 83.0413 176.687 83.0467 174.989C83.0483 174.517 83.4227 174.161 83.906 174.143C83.9603 174.141 84.0145 174.142 84.0688 174.142C88.028 174.142 91.9873 174.141 95.9465 174.143C96.0718 174.143 96.2026 174.146 96.3208 174.18C96.712 174.292 96.955 174.604 96.9556 175.002C96.9594 176.692 96.9605 178.381 96.955 180.07C96.9534 180.581 96.572 180.929 96.0273 180.93C94.4904 180.933 92.954 180.931 91.4171 180.932C90.9381 180.932 90.459 180.932 89.98 180.932Z" fill="#0F0F11"/>
</g>
</g>
</g>
<g filter="url(#filter1_ddddddd_3504_4804)">
<path d="M164 51C164 48.7909 165.791 47 168 47H208C210.209 47 212 48.7909 212 51V91C212 93.2091 210.209 95 208 95H168C165.791 95 164 93.2091 164 91V51Z" fill="white" shape-rendering="crispEdges"/>
<g clip-path="url(#clip1_3504_4804)">
<path d="M196.7 68.6406C196.7 70.2239 196.7 71.7873 196.7 73.3636C193.012 73.3636 189.337 73.3636 185.661 73.3636C185.613 73.1883 185.593 69.1807 185.64 68.6406C189.319 68.6406 193 68.6406 196.7 68.6406Z" fill="#0F0F11"/>
<path d="M196.7 67.0348C193.002 67.0348 189.331 67.0348 185.662 67.0348C185.613 66.8581 185.593 62.7847 185.64 62.3044C185.7 62.299 185.763 62.2881 185.826 62.2881C188.663 62.2871 191.501 62.2891 194.339 62.2866C195.672 62.2856 196.721 63.3981 196.712 64.6649C196.707 65.3828 196.711 66.1002 196.711 66.818C196.711 66.8824 196.704 66.9467 196.7 67.0348Z" fill="#0F0F11"/>
<path d="M185.635 79.7033C185.635 78.1136 185.635 76.5497 185.635 74.9719C189.322 74.9719 192.997 74.9719 196.688 74.9719C196.696 75.0254 196.71 75.0798 196.71 75.1343C196.712 75.8848 196.718 76.6359 196.709 77.3864C196.693 78.6528 195.653 79.7048 194.387 79.7093C191.516 79.7192 188.645 79.7127 185.775 79.7127C185.735 79.7122 185.695 79.7073 185.635 79.7033Z" fill="#0F0F11"/>
<path d="M184.028 68.6434C184.028 70.2217 184.028 71.7851 184.028 73.3624C182.448 73.3624 180.879 73.3624 179.297 73.3624C179.297 71.7876 179.297 70.2242 179.297 68.6612C179.475 68.6152 183.593 68.5983 184.028 68.6434Z" fill="#0F0F11"/>
<path d="M179.286 67.0142C179.286 66.6884 179.286 66.3755 179.286 66.0626C179.286 65.5923 179.283 65.1225 179.287 64.6522C179.297 63.3427 180.336 62.3001 181.645 62.2887C182.371 62.2828 183.096 62.2872 183.822 62.2877C183.886 62.2877 183.95 62.2946 184.027 62.2986C184.027 63.8769 184.027 65.4403 184.027 67.0033C183.851 67.0503 179.622 67.0637 179.286 67.0142Z" fill="#0F0F11"/>
<path d="M184.013 79.7041C183.942 79.7075 183.885 79.7125 183.828 79.7125C183.11 79.713 182.392 79.7065 181.675 79.714C180.392 79.7278 179.274 78.6629 179.283 77.3297C179.288 76.6208 179.284 75.9113 179.284 75.2019C179.284 75.1296 179.291 75.0573 179.296 74.9722C180.873 74.9722 182.436 74.9722 184 74.9722C184.048 75.1464 184.062 79.3634 184.013 79.7041Z" fill="#0F0F11"/>
</g>
</g>
<g filter="url(#filter2_ddddddd_3504_4804)">
<path d="M118 155C118 152.791 119.791 151 122 151H240C242.209 151 244 152.791 244 155V195C244 197.209 242.209 199 240 199H122C119.791 199 118 197.209 118 195V155Z" fill="white" shape-rendering="crispEdges"/>
<g opacity="0.24">
<g clip-path="url(#clip2_3504_4804)">
<path d="M139.703 166.435C141.518 166.435 143.334 166.435 145.149 166.435C145.233 166.435 145.317 166.433 145.401 166.438C145.727 166.456 145.944 166.674 145.966 167.005C145.97 167.056 145.967 167.107 145.967 167.158C145.967 169.508 145.974 171.859 145.964 174.21C145.96 175.091 145.579 175.775 144.809 176.215C144.498 176.393 144.159 176.48 143.797 176.48C142.663 176.478 141.528 176.479 140.394 176.479C139.268 176.479 138.141 176.483 137.015 176.477C136.622 176.475 136.275 176.586 135.957 176.817C135.036 177.484 134.113 178.147 133.19 178.811C133.087 178.885 132.986 178.961 132.88 179.029C132.478 179.285 131.994 178.989 132 178.539C132.001 178.505 132 178.472 132 178.437C132 175.187 132 171.937 132 168.687C132 168.035 132.224 167.477 132.697 167.029C133.085 166.662 133.547 166.453 134.08 166.443C134.761 166.431 135.442 166.436 136.123 166.436C137.316 166.435 138.51 166.435 139.703 166.435ZM139.366 173.371C140.4 173.371 141.433 173.371 142.466 173.371C142.533 173.371 142.601 173.374 142.668 173.369C142.936 173.349 143.161 173.136 143.195 172.872C143.231 172.606 143.07 172.34 142.809 172.259C142.707 172.227 142.594 172.217 142.487 172.216C140.404 172.214 138.32 172.214 136.237 172.216C136.138 172.216 136.035 172.225 135.938 172.249C135.71 172.306 135.553 172.487 135.528 172.71C135.501 172.96 135.58 173.158 135.804 173.289C135.919 173.357 136.038 173.371 136.166 173.371C137.233 173.37 138.3 173.371 139.366 173.371ZM139.334 170.687C140.375 170.687 141.417 170.687 142.457 170.686C142.55 170.686 142.643 170.688 142.734 170.674C143.068 170.627 143.279 170.273 143.17 169.952C143.078 169.683 142.888 169.554 142.566 169.554C140.426 169.553 138.285 169.553 136.143 169.553C136.093 169.553 136.042 169.552 135.992 169.56C135.7 169.608 135.512 169.85 135.525 170.157C135.537 170.453 135.732 170.656 136.035 170.682C136.118 170.689 136.203 170.687 136.286 170.687C137.303 170.687 138.318 170.687 139.334 170.687Z" fill="#0F0F11"/>
<path d="M137.403 177.641C137.522 177.641 137.613 177.641 137.705 177.641C139.696 177.641 141.687 177.645 143.679 177.639C144.531 177.637 145.3 177.38 145.945 176.804C146.658 176.167 147.064 175.369 147.078 174.399C147.094 173.33 147.083 172.261 147.083 171.192C147.083 171.099 147.083 171.006 147.083 170.895C147.155 170.888 147.218 170.876 147.282 170.875C147.912 170.874 148.542 170.874 149.173 170.875C150.399 170.876 151.225 171.839 151.325 172.713C151.34 172.847 151.365 172.981 151.365 173.115C151.367 176.365 151.367 179.614 151.365 182.864C151.365 182.964 151.362 183.069 151.333 183.164C151.232 183.501 150.884 183.655 150.568 183.51C150.5 183.479 150.436 183.436 150.375 183.393C149.397 182.69 148.416 181.991 147.443 181.28C147.102 181.03 146.731 180.916 146.315 180.916C144.114 180.917 141.912 180.914 139.71 180.919C139.299 180.92 138.908 180.86 138.547 180.653C137.852 180.253 137.476 179.639 137.409 178.843C137.376 178.458 137.403 178.067 137.403 177.641Z" fill="#0F0F11"/>
</g>
</g>
<path d="M166.19 173.5V165.8H168.225L170.26 171.52H170.315L172.35 165.8H174.385V173.5H173.01V167.615H172.955L170.865 173.5H169.71L167.62 167.615H167.565V173.5H166.19ZM176.47 175.7L177.35 173.5L174.985 167.67H176.36L177.955 171.795H178.01L179.605 167.67H180.98L177.79 175.7H176.47ZM185.263 172.51C185.703 172.51 186.052 172.396 186.308 172.169C186.565 171.942 186.693 171.634 186.693 171.245V170.97H185.263C184.603 170.97 184.273 171.227 184.273 171.74C184.273 171.967 184.358 172.154 184.526 172.301C184.695 172.44 184.941 172.51 185.263 172.51ZM184.988 173.61C184.394 173.61 183.914 173.441 183.547 173.104C183.188 172.759 183.008 172.323 183.008 171.795C183.008 171.274 183.203 170.842 183.591 170.497C183.98 170.152 184.519 169.98 185.208 169.98H186.693V169.705C186.693 169.375 186.591 169.118 186.385 168.935C186.18 168.752 185.898 168.66 185.538 168.66C185.26 168.66 185.029 168.726 184.845 168.858C184.669 168.983 184.552 169.137 184.493 169.32H183.195C183.327 168.799 183.599 168.378 184.009 168.055C184.42 167.725 184.93 167.56 185.538 167.56C186.301 167.56 186.895 167.751 187.32 168.132C187.746 168.513 187.958 169.038 187.958 169.705V173.5H186.858L186.748 172.785H186.693C186.569 173.005 186.352 173.199 186.044 173.368C185.744 173.529 185.392 173.61 184.988 173.61ZM191.587 173.61C190.751 173.61 190.084 173.342 189.585 172.807C189.087 172.272 188.837 171.531 188.837 170.585C188.837 169.639 189.087 168.898 189.585 168.363C190.084 167.828 190.751 167.56 191.587 167.56C192.269 167.56 192.834 167.743 193.281 168.11C193.729 168.469 194.026 168.928 194.172 169.485H192.907C192.621 168.972 192.181 168.715 191.587 168.715C191.14 168.715 190.781 168.88 190.509 169.21C190.238 169.533 190.102 169.991 190.102 170.585C190.102 171.179 190.238 171.641 190.509 171.971C190.781 172.294 191.14 172.455 191.587 172.455C192.181 172.455 192.621 172.198 192.907 171.685H194.172C194.026 172.242 193.729 172.704 193.281 173.071C192.834 173.43 192.269 173.61 191.587 173.61ZM197.469 173.61C196.633 173.61 195.966 173.342 195.467 172.807C194.968 172.272 194.719 171.531 194.719 170.585C194.719 169.639 194.968 168.898 195.467 168.363C195.966 167.828 196.633 167.56 197.469 167.56C198.151 167.56 198.716 167.743 199.163 168.11C199.61 168.469 199.907 168.928 200.054 169.485H198.789C198.503 168.972 198.063 168.715 197.469 168.715C197.022 168.715 196.662 168.88 196.391 169.21C196.12 169.533 195.984 169.991 195.984 170.585C195.984 171.179 196.12 171.641 196.391 171.971C196.662 172.294 197.022 172.455 197.469 172.455C198.063 172.455 198.503 172.198 198.789 171.685H200.054C199.907 172.242 199.61 172.704 199.163 173.071C198.716 173.43 198.151 173.61 197.469 173.61ZM205.352 172.807C204.854 173.342 204.186 173.61 203.35 173.61C202.514 173.61 201.847 173.342 201.348 172.807C200.85 172.272 200.6 171.531 200.6 170.585C200.6 169.639 200.85 168.898 201.348 168.363C201.847 167.828 202.514 167.56 203.35 167.56C204.186 167.56 204.854 167.828 205.352 168.363C205.851 168.898 206.1 169.639 206.1 170.585C206.1 171.531 205.851 172.272 205.352 172.807ZM202.283 171.982C202.562 172.297 202.918 172.455 203.35 172.455C203.783 172.455 204.139 172.297 204.417 171.982C204.696 171.659 204.835 171.194 204.835 170.585C204.835 169.976 204.696 169.514 204.417 169.199C204.139 168.876 203.783 168.715 203.35 168.715C202.918 168.715 202.562 168.876 202.283 169.199C202.005 169.514 201.865 169.976 201.865 170.585C201.865 171.194 202.005 171.659 202.283 171.982ZM209.181 173.61C208.543 173.61 208.026 173.394 207.63 172.961C207.234 172.528 207.036 171.956 207.036 171.245V167.67H208.301V171.135C208.301 171.546 208.411 171.868 208.631 172.103C208.859 172.338 209.152 172.455 209.511 172.455C209.885 172.455 210.19 172.327 210.424 172.07C210.659 171.813 210.776 171.494 210.776 171.113V167.67H212.041V173.5H210.996L210.831 172.785H210.776C210.446 173.335 209.915 173.61 209.181 173.61ZM213.251 173.5V167.67H214.296L214.461 168.385H214.516C214.846 167.835 215.378 167.56 216.111 167.56C216.749 167.56 217.266 167.776 217.662 168.209C218.058 168.642 218.256 169.214 218.256 169.925V173.5H216.991V170.035C216.991 169.624 216.877 169.302 216.65 169.067C216.43 168.832 216.14 168.715 215.781 168.715C215.407 168.715 215.103 168.843 214.868 169.1C214.633 169.357 214.516 169.676 214.516 170.057V173.5H213.251ZM221.502 173.5C220.981 173.5 220.574 173.361 220.281 173.082C219.995 172.796 219.852 172.404 219.852 171.905V168.825H218.917V167.67H219.852L220.017 166.13H221.117V167.67H222.547V168.825H221.117V171.74C221.117 171.909 221.172 172.052 221.282 172.169C221.392 172.286 221.538 172.345 221.722 172.345H222.547V173.5H221.502Z" fill="#0F0F11" fill-opacity="0.4"/>
<path d="M168.395 184.07L170.875 181.59H165.795V180.34H170.895L168.405 177.85H169.795L172.895 180.96L169.785 184.07H168.395ZM175.887 184.5V177.4H177.187V183.37H180.558V184.5H175.887ZM183.345 184.62C181.755 184.62 180.715 183.52 180.715 181.83C180.715 180.14 181.755 179.04 183.345 179.04C184.925 179.04 185.965 180.14 185.965 181.83C185.965 183.52 184.925 184.62 183.345 184.62ZM183.345 183.58C184.165 183.58 184.635 182.94 184.635 181.83C184.635 180.73 184.165 180.08 183.345 180.08C182.515 180.08 182.045 180.73 182.045 181.83C182.045 182.94 182.515 183.58 183.345 183.58ZM188.932 186.12C187.522 186.12 186.742 185.51 186.502 184.6L187.822 184.51C187.952 184.92 188.242 185.15 188.932 185.15C189.722 185.15 190.162 184.81 190.162 184.06V183.38C189.912 183.9 189.302 184.24 188.612 184.24C187.282 184.24 186.342 183.2 186.342 181.65C186.342 180.12 187.272 179.04 188.592 179.04C189.362 179.04 189.942 179.41 190.202 179.99V179.16H191.452V184.03C191.452 185.4 190.452 186.12 188.932 186.12ZM188.912 183.24C189.672 183.24 190.162 182.64 190.172 181.64C190.182 180.65 189.682 180.04 188.912 180.04C188.132 180.04 187.672 180.66 187.672 181.64C187.672 182.62 188.152 183.24 188.912 183.24ZM194.736 186.12C193.326 186.12 192.546 185.51 192.306 184.6L193.626 184.51C193.756 184.92 194.046 185.15 194.736 185.15C195.526 185.15 195.966 184.81 195.966 184.06V183.38C195.716 183.9 195.106 184.24 194.416 184.24C193.086 184.24 192.146 183.2 192.146 181.65C192.146 180.12 193.076 179.04 194.396 179.04C195.166 179.04 195.746 179.41 196.006 179.99V179.16H197.256V184.03C197.256 185.4 196.256 186.12 194.736 186.12ZM194.716 183.24C195.476 183.24 195.966 182.64 195.976 181.64C195.986 180.65 195.486 180.04 194.716 180.04C193.936 180.04 193.476 180.66 193.476 181.64C193.476 182.62 193.956 183.24 194.716 183.24ZM200.569 184.62C198.969 184.62 197.949 183.52 197.949 181.83C197.949 180.15 198.969 179.04 200.539 179.04C202.069 179.04 203.069 180.1 203.069 181.9V182.19H199.279C199.319 183.13 199.809 183.6 200.579 183.6C201.149 183.6 201.529 183.33 201.689 182.86L202.999 182.94C202.709 183.98 201.799 184.62 200.569 184.62ZM199.279 181.33H201.749C201.689 180.46 201.219 180.05 200.539 180.05C199.849 180.05 199.379 180.5 199.279 181.33ZM205.67 184.62C204.31 184.62 203.46 183.54 203.46 181.83C203.46 180.12 204.33 179.04 205.67 179.04C206.42 179.04 207.01 179.37 207.3 179.92V177.4H208.58V184.5H207.36L207.33 183.71C207.03 184.28 206.41 184.62 205.67 184.62ZM206.06 183.58C206.85 183.58 207.3 182.96 207.3 181.83C207.3 180.69 206.86 180.08 206.06 180.08C205.28 180.08 204.79 180.74 204.79 181.83C204.79 182.9 205.29 183.58 206.06 183.58ZM214.064 184.62C212.474 184.62 211.434 183.52 211.434 181.83C211.434 180.14 212.474 179.04 214.064 179.04C215.644 179.04 216.684 180.14 216.684 181.83C216.684 183.52 215.644 184.62 214.064 184.62ZM214.064 183.58C214.884 183.58 215.354 182.94 215.354 181.83C215.354 180.73 214.884 180.08 214.064 180.08C213.234 180.08 212.764 180.73 212.764 181.83C212.764 182.94 213.234 183.58 214.064 183.58ZM219.132 184.62C218.042 184.62 217.372 183.87 217.372 182.6V179.16H218.652V182.28C218.652 183.18 218.942 183.58 219.562 183.58C220.252 183.58 220.652 183.11 220.652 182.23V179.16H221.932V184.5H220.762L220.742 183.63C220.462 184.28 219.912 184.62 219.132 184.62ZM224.944 184.5C223.884 184.5 223.394 184.03 223.394 182.97V180.15H222.554V179.16H223.394V177.91H224.674V179.16H226.084V180.15H224.674V182.85C224.674 183.35 224.884 183.51 225.334 183.51H226.084V184.5H224.944Z" fill="#0F0F11"/>
</g>
<g filter="url(#filter3_ddddddd_3504_4804)">
<path d="M40 103C40 100.791 41.7909 99 44 99H144C146.209 99 148 100.791 148 103V143C148 145.209 146.209 147 144 147H44C41.7909 147 40 145.209 40 143V103Z" fill="white" shape-rendering="crispEdges"/>
<g opacity="0.48">
<path d="M55.0417 116.18C55.2525 116.045 55.4785 116.025 55.703 115.999C55.7636 115.991 55.8258 115.997 55.8874 115.997C61.3751 115.997 66.8622 115.997 72.3499 115.996C72.6413 115.996 72.9232 116.031 73.2072 116.176C73.1018 116.283 73.0117 116.375 72.9195 116.466C70.4439 118.892 67.9667 121.318 65.4927 123.746C65.0816 124.149 64.6121 124.386 64.0151 124.355C63.5098 124.33 63.1135 124.104 62.7673 123.765C61.5727 122.594 60.3786 121.423 59.1835 120.253C57.8645 118.961 56.5451 117.669 55.2261 116.377C55.165 116.316 55.1086 116.251 55.0417 116.18Z" fill="#0F0F11"/>
<path d="M73.2014 129.813C72.997 129.955 72.7772 129.967 72.5649 130.001C72.5222 130.008 72.4774 130.004 72.4331 130.004C66.8943 130.004 61.3561 130.004 55.8173 130.005C55.5512 130.005 55.2972 129.957 55.0253 129.826C57.0741 127.82 59.105 125.832 61.1527 123.827C61.4109 124.082 61.6581 124.325 61.9057 124.568C62.2119 124.869 62.5454 125.132 62.9522 125.294C64.0594 125.736 65.0832 125.582 66.0091 124.852C66.3089 124.615 66.5697 124.33 66.8432 124.062C66.917 123.989 66.9718 123.898 67.0514 123.794C69.1291 125.826 71.1605 127.815 73.2014 129.813Z" fill="#0F0F11"/>
<path d="M54.1859 116.999C56.2421 119.012 58.2687 120.997 60.3143 123C58.2682 125.004 56.2415 126.988 54.2001 128.987C54.0494 128.791 54.0447 128.573 54.0067 128.368C53.9946 128.301 54.0025 128.23 54.0025 128.161C54.0025 124.72 54.0031 121.279 54.0015 117.838C54.0015 117.559 54.0421 117.291 54.1859 116.999Z" fill="#0F0F11"/>
<path d="M74.0535 116.998C74.1873 117.276 74.2363 117.526 74.2363 117.788C74.2358 118.92 74.2358 120.053 74.2358 121.185C74.2358 123.511 74.2353 125.836 74.2363 128.162C74.2363 128.442 74.1958 128.71 74.0519 129C72.0031 126.994 69.9723 125.006 67.9235 123C69.9707 120.996 71.9973 119.012 74.0535 116.998Z" fill="#0F0F11"/>
</g>
<path d="M88.3263 121.5L90.1963 118.695H90.1413C89.9213 118.805 89.6463 118.86 89.3163 118.86C88.5317 118.86 87.8937 118.622 87.4023 118.145C86.9183 117.661 86.6763 117.056 86.6763 116.33C86.6763 115.553 86.933 114.918 87.4463 114.427C87.967 113.936 88.6637 113.69 89.5363 113.69C90.409 113.69 91.102 113.939 91.6153 114.438C92.136 114.929 92.3963 115.578 92.3963 116.385C92.3963 117.162 92.1397 117.951 91.6263 118.75L89.8663 121.5H88.3263ZM88.4583 117.375C88.7297 117.632 89.089 117.76 89.5363 117.76C89.9837 117.76 90.343 117.632 90.6143 117.375C90.8857 117.111 91.0213 116.763 91.0213 116.33C91.0213 115.897 90.8857 115.553 90.6143 115.296C90.343 115.032 89.9837 114.9 89.5363 114.9C89.089 114.9 88.7297 115.032 88.4583 115.296C88.187 115.553 88.0513 115.897 88.0513 116.33C88.0513 116.763 88.187 117.111 88.4583 117.375ZM94.702 121.5L96.572 118.695H96.517C96.297 118.805 96.022 118.86 95.692 118.86C94.9074 118.86 94.2694 118.622 93.778 118.145C93.294 117.661 93.052 117.056 93.052 116.33C93.052 115.553 93.3087 114.918 93.822 114.427C94.3427 113.936 95.0394 113.69 95.912 113.69C96.7847 113.69 97.4777 113.939 97.991 114.438C98.5117 114.929 98.772 115.578 98.772 116.385C98.772 117.162 98.5154 117.951 98.002 118.75L96.242 121.5H94.702ZM94.834 117.375C95.1054 117.632 95.4647 117.76 95.912 117.76C96.3594 117.76 96.7187 117.632 96.99 117.375C97.2614 117.111 97.397 116.763 97.397 116.33C97.397 115.897 97.2614 115.553 96.99 115.296C96.7187 115.032 96.3594 114.9 95.912 114.9C95.4647 114.9 95.1054 115.032 94.834 115.296C94.5627 115.553 94.427 115.897 94.427 116.33C94.427 116.763 94.5627 117.111 94.834 117.375ZM101.078 121.5L102.948 118.695H102.893C102.673 118.805 102.398 118.86 102.068 118.86C101.283 118.86 100.645 118.622 100.154 118.145C99.6697 117.661 99.4277 117.056 99.4277 116.33C99.4277 115.553 99.6844 114.918 100.198 114.427C100.718 113.936 101.415 113.69 102.288 113.69C103.16 113.69 103.853 113.939 104.367 114.438C104.887 114.929 105.148 115.578 105.148 116.385C105.148 117.162 104.891 117.951 104.378 118.75L102.618 121.5H101.078ZM101.21 117.375C101.481 117.632 101.84 117.76 102.288 117.76C102.735 117.76 103.094 117.632 103.366 117.375C103.637 117.111 103.773 116.763 103.773 116.33C103.773 115.897 103.637 115.553 103.366 115.296C103.094 115.032 102.735 114.9 102.288 114.9C101.84 114.9 101.481 115.032 101.21 115.296C100.938 115.553 100.803 115.897 100.803 116.33C100.803 116.763 100.938 117.111 101.21 117.375ZM107.893 120.73V118.64H105.803V117.595H107.893V115.505H108.938V117.595H111.028V118.64H108.938V120.73H107.893Z" fill="#0F0F11" fill-opacity="0.4"/>
<path d="M89.2663 132.07L91.7463 129.59H86.6663V128.34H91.7663L89.2763 125.85H90.6663L93.7663 128.96L90.6563 132.07H89.2663ZM99.4486 132.66C97.7086 132.66 96.6086 131.62 96.6086 129.96V125.39H97.9086V129.96C97.9086 130.97 98.4686 131.53 99.4486 131.53C100.439 131.53 100.999 130.97 100.999 129.96V125.39H102.299V129.96C102.299 131.62 101.199 132.66 99.4486 132.66ZM103.351 132.5V127.16H104.511L104.541 128.07C104.831 127.34 105.431 127.04 106.141 127.04C107.321 127.04 107.961 127.87 107.961 129.07V132.5H106.681V129.48C106.681 128.58 106.441 128.08 105.751 128.08C105.061 128.08 104.631 128.58 104.631 129.48V132.5H103.351ZM108.891 132.5V127.16H110.091L110.121 128.2C110.331 127.48 110.741 127.16 111.401 127.16H111.891V128.26H111.391C110.571 128.26 110.171 128.6 110.171 129.42V132.5H108.891ZM114.592 132.62C112.992 132.62 111.972 131.52 111.972 129.83C111.972 128.15 112.992 127.04 114.562 127.04C116.092 127.04 117.092 128.1 117.092 129.9V130.19H113.302C113.342 131.13 113.832 131.6 114.602 131.6C115.172 131.6 115.552 131.33 115.712 130.86L117.022 130.94C116.732 131.98 115.822 132.62 114.592 132.62ZM113.302 129.33H115.772C115.712 128.46 115.242 128.05 114.562 128.05C113.872 128.05 113.402 128.5 113.302 129.33ZM119.421 132.62C118.301 132.62 117.561 132.09 117.561 131.16C117.561 130.24 118.131 129.75 119.301 129.52L121.071 129.17C121.071 128.42 120.721 128.03 120.041 128.03C119.421 128.03 119.071 128.32 118.951 128.86L117.651 128.8C117.861 127.68 118.721 127.04 120.041 127.04C121.561 127.04 122.351 127.84 122.351 129.26V131.2C122.351 131.49 122.451 131.57 122.651 131.57H122.821V132.5C122.731 132.52 122.531 132.54 122.351 132.54C121.771 132.54 121.341 132.33 121.241 131.68C120.971 132.25 120.291 132.62 119.421 132.62ZM119.681 131.69C120.531 131.69 121.071 131.15 121.071 130.34V130.04L119.691 130.32C119.121 130.43 118.891 130.67 118.891 131.04C118.891 131.46 119.171 131.69 119.681 131.69ZM125.193 132.62C123.833 132.62 122.983 131.54 122.983 129.83C122.983 128.12 123.853 127.04 125.193 127.04C125.943 127.04 126.533 127.37 126.823 127.92V125.4H128.103V132.5H126.883L126.853 131.71C126.553 132.28 125.933 132.62 125.193 132.62ZM125.583 131.58C126.373 131.58 126.823 130.96 126.823 129.83C126.823 128.69 126.383 128.08 125.583 128.08C124.803 128.08 124.313 128.74 124.313 129.83C124.313 130.9 124.813 131.58 125.583 131.58Z" fill="#0F0F11"/>
</g>
<g filter="url(#filter4_ddddddd_3504_4804)">
<path d="M152 103C152 100.791 153.791 99 156 99H196C198.209 99 200 100.791 200 103V143C200 145.209 198.209 147 196 147H156C153.791 147 152 145.209 152 143V103Z" fill="white" shape-rendering="crispEdges"/>
<g opacity="0.48">
<g clip-path="url(#clip3_3504_4804)">
<path d="M182.499 124.675C181.776 124.497 181.072 124.451 180.337 124.627C180.329 124.495 180.319 124.392 180.318 124.29C180.315 123.982 180.324 123.674 180.314 123.366C180.3 122.94 180.111 122.745 179.697 122.736C179.288 122.727 178.878 122.727 178.468 122.736C178.039 122.746 177.852 122.946 177.85 123.391C177.847 124.247 177.846 125.104 177.852 125.961C177.853 126.14 177.812 126.291 177.709 126.443C176.367 128.415 176.823 131.081 178.745 132.501C178.811 132.55 178.873 132.605 178.982 132.695C178.845 132.706 178.766 132.719 178.687 132.719C175.21 132.721 171.733 132.722 168.257 132.719C167.483 132.718 166.953 132.178 166.952 131.389C166.951 125.797 166.951 120.204 166.952 114.612C166.952 113.807 167.482 113.281 168.284 113.281C172.58 113.279 176.875 113.28 181.171 113.281C181.989 113.281 182.521 113.8 182.522 114.627C182.527 117.88 182.524 121.134 182.524 124.386C182.523 124.47 182.51 124.554 182.499 124.675ZM174.683 120.003C176.406 120.003 178.128 120.005 179.851 120.002C180.334 120.002 180.504 119.826 180.505 119.341C180.508 118.264 180.508 117.187 180.505 116.109C180.504 115.641 180.327 115.455 179.871 115.454C176.445 115.452 173.019 115.452 169.593 115.454C169.121 115.454 168.932 115.647 168.931 116.119C168.929 116.917 168.931 117.716 168.931 118.514C168.931 118.822 168.925 119.13 168.933 119.437C168.943 119.781 169.125 119.972 169.459 119.998C169.563 120.006 169.668 120.003 169.773 120.003C171.409 120.003 173.046 120.003 174.683 120.003ZM170.358 125.184C170.596 125.184 170.834 125.192 171.07 125.182C171.382 125.17 171.572 124.988 171.578 124.679C171.588 124.209 171.586 123.738 171.578 123.268C171.572 122.968 171.406 122.763 171.112 122.75C170.61 122.727 170.105 122.728 169.603 122.753C169.319 122.766 169.159 122.967 169.154 123.253C169.145 123.723 169.145 124.194 169.153 124.664C169.159 124.991 169.345 125.172 169.674 125.183C169.902 125.191 170.131 125.185 170.358 125.184ZM171.582 128.534C171.582 128.313 171.586 128.093 171.581 127.871C171.573 127.543 171.379 127.316 171.058 127.304C170.593 127.288 170.126 127.286 169.661 127.305C169.345 127.319 169.157 127.535 169.153 127.852C169.146 128.313 169.145 128.775 169.153 129.236C169.159 129.56 169.345 129.754 169.671 129.762C170.136 129.774 170.602 129.775 171.068 129.761C171.39 129.752 171.57 129.552 171.58 129.226C171.587 128.996 171.581 128.765 171.582 128.534ZM174.7 125.184C174.7 125.185 174.7 125.185 174.7 125.185C174.929 125.185 175.157 125.19 175.385 125.184C175.753 125.175 175.924 125.004 175.93 124.63C175.936 124.188 175.935 123.745 175.93 123.302C175.925 122.946 175.763 122.754 175.416 122.741C174.95 122.723 174.482 122.724 174.017 122.742C173.701 122.754 173.522 122.939 173.511 123.258C173.496 123.738 173.495 124.22 173.513 124.701C173.525 125.002 173.717 125.171 174.015 125.182C174.243 125.191 174.472 125.184 174.7 125.184ZM175.93 128.544C175.93 128.314 175.936 128.083 175.929 127.853C175.919 127.523 175.748 127.319 175.426 127.305C174.961 127.286 174.495 127.288 174.03 127.304C173.718 127.315 173.519 127.524 173.51 127.843C173.497 128.313 173.495 128.785 173.511 129.254C173.521 129.57 173.708 129.753 174.019 129.761C174.485 129.774 174.95 129.774 175.416 129.762C175.752 129.753 175.917 129.575 175.928 129.235C175.936 129.005 175.93 128.775 175.93 128.544Z" fill="#0F0F11"/>
<path d="M177.58 128.921C177.541 127.062 179.032 125.144 181.324 125.156C183.646 125.167 185.068 127.1 185.051 128.947C185.032 131.031 183.365 132.725 181.298 132.714C179.095 132.703 177.525 130.833 177.58 128.921ZM179.736 130.894C179.858 130.802 179.964 130.74 180.048 130.656C181.033 129.665 182.016 128.671 182.998 127.677C183.052 127.623 183.109 127.568 183.146 127.502C183.225 127.364 183.219 127.223 183.099 127.109C182.981 126.995 182.847 126.977 182.712 127.08C182.651 127.126 182.597 127.181 182.543 127.235C181.567 128.221 180.59 129.207 179.615 130.194C179.561 130.249 179.508 130.305 179.463 130.366C179.386 130.469 179.369 130.588 179.455 130.685C179.524 130.764 179.626 130.814 179.736 130.894ZM180.133 127.096C179.759 127.09 179.499 127.344 179.498 127.715C179.497 128.077 179.77 128.358 180.122 128.356C180.466 128.354 180.733 128.088 180.741 127.739C180.75 127.36 180.505 127.101 180.133 127.096ZM182.504 129.522C182.144 129.518 181.861 129.791 181.859 130.145C181.857 130.483 182.162 130.784 182.504 130.782C182.854 130.779 183.131 130.491 183.126 130.133C183.122 129.787 182.856 129.525 182.504 129.522Z" fill="#0F0F11"/>
<path d="M170.221 117.724C170.221 117.551 170.215 117.378 170.222 117.205C170.243 116.661 170.615 116.292 171.15 116.281C171.321 116.278 171.492 116.279 171.663 116.281C172.218 116.287 172.582 116.609 172.621 117.17C172.648 117.543 172.646 117.92 172.623 118.293C172.588 118.836 172.235 119.171 171.697 119.195C171.47 119.205 171.239 119.212 171.014 119.181C170.546 119.118 170.24 118.756 170.222 118.272C170.215 118.089 170.221 117.907 170.221 117.724ZM171.878 117.739C171.878 117.739 171.879 117.739 171.88 117.739C171.88 117.701 171.88 117.662 171.88 117.624C171.87 116.99 171.996 117.008 171.227 117.015C171.046 117.017 170.971 117.102 170.977 117.282C170.983 117.464 170.978 117.647 170.978 117.829C170.978 118.477 171.006 118.499 171.658 118.434C171.811 118.419 171.882 118.354 171.879 118.2C171.876 118.046 171.878 117.893 171.878 117.739Z" fill="#0F0F11"/>
</g>
</g>
</g>
<g filter="url(#filter5_ddddddd_3504_4804)">
<path d="M112 51C112 48.7909 113.791 47 116 47H156C158.209 47 160 48.7909 160 51V91C160 93.2091 158.209 95 156 95H116C113.791 95 112 93.2091 112 91V51Z" fill="white" shape-rendering="crispEdges"/>
<path d="M130.429 80.6578C130.703 80.1695 130.965 79.6996 131.23 79.2326C132.124 77.6561 133.023 76.083 133.908 74.5008C134.032 74.2796 134.167 74.2091 134.413 74.2097C138.274 74.2183 142.136 74.2126 145.997 74.2246C146.204 74.2252 146.442 74.31 146.609 74.4349C146.85 74.6154 146.851 74.9323 146.672 75.2704C146.042 76.4618 145.408 77.6504 144.775 78.8406C144.521 79.3185 144.266 79.7953 144.017 80.2756C143.876 80.5466 143.658 80.683 143.36 80.683C139.077 80.683 134.794 80.6819 130.512 80.6801C130.503 80.6801 130.494 80.6756 130.429 80.6578Z" fill="#0F0F11"/>
<path d="M131.697 63.282C132.13 64.043 132.538 64.7587 132.945 65.4756C133.676 66.7633 134.403 68.0533 135.139 69.3375C135.222 69.4825 135.217 69.5856 135.137 69.7272C133.147 73.224 131.161 76.7231 129.178 80.224C129.033 80.4819 128.85 80.6813 128.549 80.6761C128.251 80.671 128.071 80.4767 127.93 80.2108C127.064 78.5638 126.189 76.9226 125.312 75.2819C125.158 74.9942 125.161 74.7312 125.324 74.4464C127.4 70.8023 129.473 67.1553 131.546 63.5095C131.583 63.4447 131.628 63.3845 131.697 63.282Z" fill="#0F0F11"/>
<path d="M145.792 72.9478C145.652 72.9478 145.562 72.9478 145.471 72.9478C143.307 72.9478 141.141 72.9438 138.977 72.9535C138.748 72.9547 138.631 72.8756 138.52 72.6802C136.592 69.2693 134.655 65.8625 132.722 62.4539C132.354 61.8046 132.631 61.3221 133.367 61.3215C135.129 61.3209 136.891 61.3267 138.653 61.3169C139.033 61.3146 139.279 61.4676 139.469 61.8017C141.517 65.4178 143.573 69.0292 145.627 72.6424C145.673 72.7249 145.717 72.8091 145.792 72.9478Z" fill="#0F0F11"/>
</g>
<g filter="url(#filter6_ddddddd_3504_4804)">
<path d="M60 51C60 48.7909 61.7909 47 64 47H104C106.209 47 108 48.7909 108 51V91C108 93.2091 106.209 95 104 95H64C61.7909 95 60 93.2091 60 91V51Z" fill="white" shape-rendering="crispEdges"/>
<path d="M85.5614 81.4277C81.5694 80.6596 77.5757 79.8909 73.5723 79.1206C73.5723 73.7004 73.5723 68.3046 73.5723 62.8812C77.5746 62.1104 81.5688 61.3412 85.5609 60.5725C85.6298 60.8097 85.6309 81.185 85.5614 81.4277ZM76.085 66.9725C76.1149 67.048 76.1236 67.0838 76.1415 67.1137C76.8562 68.3394 77.5676 69.5667 78.2926 70.7865C78.3974 70.9629 78.3854 71.078 78.2773 71.2441C77.5589 72.3509 76.8529 73.4659 76.1431 74.5787C76.047 74.7296 75.9558 74.8833 75.8515 75.0526C76.583 75.0526 77.2857 75.0526 77.9928 75.0526C78.2741 74.5293 78.5576 74.0153 78.828 73.4947C79.0892 72.9909 79.4096 72.5154 79.5644 71.9606C79.5677 71.9498 79.5937 71.9454 79.603 71.9411C80.0298 73.0338 80.669 74.0174 81.174 75.0526C81.9023 75.0526 82.5952 75.0526 83.317 75.0526C82.4806 73.6831 81.6568 72.3352 80.827 70.977C81.2273 70.3164 81.6253 69.6607 82.0223 69.0038C82.4231 68.3405 82.8228 67.6771 83.2279 67.0051C83.1763 66.9899 83.1508 66.9763 83.1253 66.9763C82.5463 66.9747 81.9669 66.9758 81.388 66.972C81.2718 66.9709 81.2104 67.0208 81.1583 67.1207C80.9541 67.5137 80.7363 67.8992 80.5338 68.2927C80.2698 68.8057 79.9494 69.2915 79.7805 69.8512C79.7604 69.9174 79.7213 69.9782 79.6763 70.0721C79.5801 69.8224 79.509 69.6004 79.4107 69.3909C79.0588 68.6385 78.6944 67.8916 78.3431 67.1386C78.2833 67.0111 78.2062 66.9693 78.0726 66.9709C77.611 66.9763 77.1494 66.9731 76.6883 66.9731C76.4999 66.9725 76.3109 66.9725 76.085 66.9725Z" fill="#0F0F11"/>
<path d="M86.3896 68.6206C86.3896 68.0561 86.3896 67.5431 86.3896 66.9926C86.7953 66.9796 87.1901 66.9883 87.5849 66.9867C87.9818 66.985 88.3794 66.9861 88.7954 66.9861C88.7954 66.4558 88.7954 65.9455 88.7954 65.3983C87.9992 65.3983 87.2085 65.3983 86.4281 65.3983C86.3652 65.1562 86.3581 63.259 86.4129 62.9784C86.4781 62.9729 86.5482 62.9626 86.6182 62.9626C88.9534 62.9615 91.2885 62.9615 93.6237 62.9637C93.7215 62.9637 93.823 62.9767 93.9164 63.0039C94.2222 63.0935 94.3992 63.3182 94.4236 63.6347C94.4291 63.7069 94.4258 63.7796 94.4258 63.8518C94.4258 68.6195 94.4258 73.3872 94.4258 78.1555C94.4258 78.2098 94.4274 78.2641 94.4253 78.3183C94.4084 78.7325 94.1391 79.0099 93.7253 79.0371C93.671 79.0409 93.6166 79.0381 93.5623 79.0381C91.2723 79.0381 88.9827 79.0381 86.6926 79.0381C86.603 79.0381 86.5134 79.0381 86.4298 79.0381C86.3657 78.8335 86.3445 77.1219 86.3983 76.6111C86.6475 76.5742 86.9071 76.5992 87.1645 76.5948C87.4268 76.5905 87.6897 76.5938 87.952 76.5938C88.2132 76.5938 88.4744 76.5938 88.772 76.5938C88.7921 76.0661 88.7905 75.5591 88.7715 75.0261C87.9737 75.0261 87.1988 75.0261 86.432 75.0261C86.3657 74.8133 86.3532 73.7265 86.4119 73.3878C87.1873 73.3878 87.9694 73.3878 88.7677 73.3878C88.7677 72.8536 88.7677 72.352 88.7677 71.8174C87.9748 71.8174 87.1922 71.8174 86.3939 71.8174C86.3939 71.2642 86.3939 70.7442 86.3939 70.1921C87.1819 70.1671 87.965 70.1954 88.7649 70.1764C88.7649 69.6558 88.7649 69.1542 88.7649 68.6201C87.9797 68.6206 87.1971 68.6206 86.3896 68.6206ZM89.6436 66.9546C90.0786 67.0035 92.5843 66.9872 92.7809 66.9367C92.7809 66.4362 92.7809 65.9352 92.7809 65.4217C91.7284 65.4217 90.6944 65.4217 89.6436 65.4217C89.6436 65.9395 89.6436 66.4406 89.6436 66.9546ZM92.7787 70.1677C92.7787 69.639 92.7787 69.1385 92.7787 68.6331C91.723 68.6331 90.6885 68.6331 89.6425 68.6331C89.6425 69.151 89.6425 69.6514 89.6425 70.1677C90.6933 70.1677 91.7273 70.1677 92.7787 70.1677ZM89.6414 71.8336C89.6414 72.351 89.6414 72.8515 89.6414 73.3498C89.9249 73.4035 92.5821 73.3959 92.7792 73.3443C92.7792 72.8428 92.7792 72.3423 92.7792 71.8342C91.7252 71.8336 90.6906 71.8336 89.6414 71.8336ZM89.6431 76.5704C90.071 76.6214 92.5843 76.6041 92.7809 76.5514C92.7809 76.0515 92.7809 75.5504 92.7809 75.038C91.7284 75.038 90.6939 75.038 89.6431 75.038C89.6431 75.5542 89.6431 76.0553 89.6431 76.5704Z" fill="#0F0F11"/>
</g>
<defs>
<filter id="filter0_ddddddd_3504_4804" x="42" y="149.5" width="96" height="121.5" filterUnits="userSpaceOnUse" color-interpolation-filters="sRGB">
<feFlood flood-opacity="0" result="BackgroundImageFix"/>
<feColorMatrix in="SourceAlpha" type="matrix" values="0 0 0 0 0 0 0 0 0 0 0 0 0 0 0 0 0 0 127 0" result="hardAlpha"/>
<feMorphology radius="0.5" operator="dilate" in="SourceAlpha" result="effect1_dropShadow_3504_4804"/>
<feOffset dy="1"/>
<feGaussianBlur stdDeviation="0.5"/>
<feComposite in2="hardAlpha" operator="out"/>
<feColorMatrix type="matrix" values="0 0 0 0 0.2 0 0 0 0 0.2 0 0 0 0 0.2 0 0 0 0.04 0"/>
<feBlend mode="normal" in2="BackgroundImageFix" result="effect1_dropShadow_3504_4804"/>
<feColorMatrix in="SourceAlpha" type="matrix" values="0 0 0 0 0 0 0 0 0 0 0 0 0 0 0 0 0 0 127 0" result="hardAlpha"/>
<feMorphology radius="1.5" operator="erode" in="SourceAlpha" result="effect2_dropShadow_3504_4804"/>
<feOffset dy="3"/>
<feGaussianBlur stdDeviation="1.5"/>
<feComposite in2="hardAlpha" operator="out"/>
<feColorMatrix type="matrix" values="0 0 0 0 0.2 0 0 0 0 0.2 0 0 0 0 0.2 0 0 0 0.02 0"/>
<feBlend mode="normal" in2="effect1_dropShadow_3504_4804" result="effect2_dropShadow_3504_4804"/>
<feColorMatrix in="SourceAlpha" type="matrix" values="0 0 0 0 0 0 0 0 0 0 0 0 0 0 0 0 0 0 127 0" result="hardAlpha"/>
<feMorphology radius="3" operator="erode" in="SourceAlpha" result="effect3_dropShadow_3504_4804"/>
<feOffset dy="6"/>
<feGaussianBlur stdDeviation="3"/>
<feComposite in2="hardAlpha" operator="out"/>
<feColorMatrix type="matrix" values="0 0 0 0 0.2 0 0 0 0 0.2 0 0 0 0 0.2 0 0 0 0.04 0"/>
<feBlend mode="normal" in2="effect2_dropShadow_3504_4804" result="effect3_dropShadow_3504_4804"/>
<feColorMatrix in="SourceAlpha" type="matrix" values="0 0 0 0 0 0 0 0 0 0 0 0 0 0 0 0 0 0 127 0" result="hardAlpha"/>
<feMorphology radius="6" operator="erode" in="SourceAlpha" result="effect4_dropShadow_3504_4804"/>
<feOffset dy="12"/>
<feGaussianBlur stdDeviation="6"/>
<feComposite in2="hardAlpha" operator="out"/>
<feColorMatrix type="matrix" values="0 0 0 0 0.2 0 0 0 0 0.2 0 0 0 0 0.2 0 0 0 0.04 0"/>
<feBlend mode="normal" in2="effect3_dropShadow_3504_4804" result="effect4_dropShadow_3504_4804"/>
<feColorMatrix in="SourceAlpha" type="matrix" values="0 0 0 0 0 0 0 0 0 0 0 0 0 0 0 0 0 0 127 0" result="hardAlpha"/>
<feMorphology radius="12" operator="erode" in="SourceAlpha" result="effect5_dropShadow_3504_4804"/>
<feOffset dy="24"/>
<feGaussianBlur stdDeviation="12"/>
<feComposite in2="hardAlpha" operator="out"/>
<feColorMatrix type="matrix" values="0 0 0 0 0.2 0 0 0 0 0.2 0 0 0 0 0.2 0 0 0 0.04 0"/>
<feBlend mode="normal" in2="effect4_dropShadow_3504_4804" result="effect5_dropShadow_3504_4804"/>
<feColorMatrix in="SourceAlpha" type="matrix" values="0 0 0 0 0 0 0 0 0 0 0 0 0 0 0 0 0 0 127 0" result="hardAlpha"/>
<feMorphology radius="24" operator="erode" in="SourceAlpha" result="effect6_dropShadow_3504_4804"/>
<feOffset dy="48"/>
<feGaussianBlur stdDeviation="24"/>
<feComposite in2="hardAlpha" operator="out"/>
<feColorMatrix type="matrix" values="0 0 0 0 0.2 0 0 0 0 0.2 0 0 0 0 0.2 0 0 0 0.04 0"/>
<feBlend mode="normal" in2="effect5_dropShadow_3504_4804" result="effect6_dropShadow_3504_4804"/>
<feColorMatrix in="SourceAlpha" type="matrix" values="0 0 0 0 0 0 0 0 0 0 0 0 0 0 0 0 0 0 127 0" result="hardAlpha"/>
<feMorphology radius="0.5" operator="erode" in="SourceAlpha" result="effect7_dropShadow_3504_4804"/>
<feOffset dy="-1"/>
<feGaussianBlur stdDeviation="0.5"/>
<feComposite in2="hardAlpha" operator="out"/>
<feColorMatrix type="matrix" values="0 0 0 0 0.2 0 0 0 0 0.2 0 0 0 0 0.2 0 0 0 0.06 0"/>
<feBlend mode="normal" in2="effect6_dropShadow_3504_4804" result="effect7_dropShadow_3504_4804"/>
<feBlend mode="normal" in="SourceGraphic" in2="effect7_dropShadow_3504_4804" result="shape"/>
</filter>
<filter id="filter1_ddddddd_3504_4804" x="140" y="45.5" width="96" height="121.5" filterUnits="userSpaceOnUse" color-interpolation-filters="sRGB">
<feFlood flood-opacity="0" result="BackgroundImageFix"/>
<feColorMatrix in="SourceAlpha" type="matrix" values="0 0 0 0 0 0 0 0 0 0 0 0 0 0 0 0 0 0 127 0" result="hardAlpha"/>
<feMorphology radius="0.5" operator="dilate" in="SourceAlpha" result="effect1_dropShadow_3504_4804"/>
<feOffset dy="1"/>
<feGaussianBlur stdDeviation="0.5"/>
<feComposite in2="hardAlpha" operator="out"/>
<feColorMatrix type="matrix" values="0 0 0 0 0.2 0 0 0 0 0.2 0 0 0 0 0.2 0 0 0 0.04 0"/>
<feBlend mode="normal" in2="BackgroundImageFix" result="effect1_dropShadow_3504_4804"/>
<feColorMatrix in="SourceAlpha" type="matrix" values="0 0 0 0 0 0 0 0 0 0 0 0 0 0 0 0 0 0 127 0" result="hardAlpha"/>
<feMorphology radius="1.5" operator="erode" in="SourceAlpha" result="effect2_dropShadow_3504_4804"/>
<feOffset dy="3"/>
<feGaussianBlur stdDeviation="1.5"/>
<feComposite in2="hardAlpha" operator="out"/>
<feColorMatrix type="matrix" values="0 0 0 0 0.2 0 0 0 0 0.2 0 0 0 0 0.2 0 0 0 0.02 0"/>
<feBlend mode="normal" in2="effect1_dropShadow_3504_4804" result="effect2_dropShadow_3504_4804"/>
<feColorMatrix in="SourceAlpha" type="matrix" values="0 0 0 0 0 0 0 0 0 0 0 0 0 0 0 0 0 0 127 0" result="hardAlpha"/>
<feMorphology radius="3" operator="erode" in="SourceAlpha" result="effect3_dropShadow_3504_4804"/>
<feOffset dy="6"/>
<feGaussianBlur stdDeviation="3"/>
<feComposite in2="hardAlpha" operator="out"/>
<feColorMatrix type="matrix" values="0 0 0 0 0.2 0 0 0 0 0.2 0 0 0 0 0.2 0 0 0 0.04 0"/>
<feBlend mode="normal" in2="effect2_dropShadow_3504_4804" result="effect3_dropShadow_3504_4804"/>
<feColorMatrix in="SourceAlpha" type="matrix" values="0 0 0 0 0 0 0 0 0 0 0 0 0 0 0 0 0 0 127 0" result="hardAlpha"/>
<feMorphology radius="6" operator="erode" in="SourceAlpha" result="effect4_dropShadow_3504_4804"/>
<feOffset dy="12"/>
<feGaussianBlur stdDeviation="6"/>
<feComposite in2="hardAlpha" operator="out"/>
<feColorMatrix type="matrix" values="0 0 0 0 0.2 0 0 0 0 0.2 0 0 0 0 0.2 0 0 0 0.04 0"/>
<feBlend mode="normal" in2="effect3_dropShadow_3504_4804" result="effect4_dropShadow_3504_4804"/>
<feColorMatrix in="SourceAlpha" type="matrix" values="0 0 0 0 0 0 0 0 0 0 0 0 0 0 0 0 0 0 127 0" result="hardAlpha"/>
<feMorphology radius="12" operator="erode" in="SourceAlpha" result="effect5_dropShadow_3504_4804"/>
<feOffset dy="24"/>
<feGaussianBlur stdDeviation="12"/>
<feComposite in2="hardAlpha" operator="out"/>
<feColorMatrix type="matrix" values="0 0 0 0 0.2 0 0 0 0 0.2 0 0 0 0 0.2 0 0 0 0.04 0"/>
<feBlend mode="normal" in2="effect4_dropShadow_3504_4804" result="effect5_dropShadow_3504_4804"/>
<feColorMatrix in="SourceAlpha" type="matrix" values="0 0 0 0 0 0 0 0 0 0 0 0 0 0 0 0 0 0 127 0" result="hardAlpha"/>
<feMorphology radius="24" operator="erode" in="SourceAlpha" result="effect6_dropShadow_3504_4804"/>
<feOffset dy="48"/>
<feGaussianBlur stdDeviation="24"/>
<feComposite in2="hardAlpha" operator="out"/>
<feColorMatrix type="matrix" values="0 0 0 0 0.2 0 0 0 0 0.2 0 0 0 0 0.2 0 0 0 0.04 0"/>
<feBlend mode="normal" in2="effect5_dropShadow_3504_4804" result="effect6_dropShadow_3504_4804"/>
<feColorMatrix in="SourceAlpha" type="matrix" values="0 0 0 0 0 0 0 0 0 0 0 0 0 0 0 0 0 0 127 0" result="hardAlpha"/>
<feMorphology radius="0.5" operator="erode" in="SourceAlpha" result="effect7_dropShadow_3504_4804"/>
<feOffset dy="-1"/>
<feGaussianBlur stdDeviation="0.5"/>
<feComposite in2="hardAlpha" operator="out"/>
<feColorMatrix type="matrix" values="0 0 0 0 0.2 0 0 0 0 0.2 0 0 0 0 0.2 0 0 0 0.06 0"/>
<feBlend mode="normal" in2="effect6_dropShadow_3504_4804" result="effect7_dropShadow_3504_4804"/>
<feBlend mode="normal" in="SourceGraphic" in2="effect7_dropShadow_3504_4804" result="shape"/>
</filter>
<filter id="filter2_ddddddd_3504_4804" x="94" y="149.5" width="174" height="121.5" filterUnits="userSpaceOnUse" color-interpolation-filters="sRGB">
<feFlood flood-opacity="0" result="BackgroundImageFix"/>
<feColorMatrix in="SourceAlpha" type="matrix" values="0 0 0 0 0 0 0 0 0 0 0 0 0 0 0 0 0 0 127 0" result="hardAlpha"/>
<feMorphology radius="0.5" operator="dilate" in="SourceAlpha" result="effect1_dropShadow_3504_4804"/>
<feOffset dy="1"/>
<feGaussianBlur stdDeviation="0.5"/>
<feComposite in2="hardAlpha" operator="out"/>
<feColorMatrix type="matrix" values="0 0 0 0 0.2 0 0 0 0 0.2 0 0 0 0 0.2 0 0 0 0.04 0"/>
<feBlend mode="normal" in2="BackgroundImageFix" result="effect1_dropShadow_3504_4804"/>
<feColorMatrix in="SourceAlpha" type="matrix" values="0 0 0 0 0 0 0 0 0 0 0 0 0 0 0 0 0 0 127 0" result="hardAlpha"/>
<feMorphology radius="1.5" operator="erode" in="SourceAlpha" result="effect2_dropShadow_3504_4804"/>
<feOffset dy="3"/>
<feGaussianBlur stdDeviation="1.5"/>
<feComposite in2="hardAlpha" operator="out"/>
<feColorMatrix type="matrix" values="0 0 0 0 0.2 0 0 0 0 0.2 0 0 0 0 0.2 0 0 0 0.02 0"/>
<feBlend mode="normal" in2="effect1_dropShadow_3504_4804" result="effect2_dropShadow_3504_4804"/>
<feColorMatrix in="SourceAlpha" type="matrix" values="0 0 0 0 0 0 0 0 0 0 0 0 0 0 0 0 0 0 127 0" result="hardAlpha"/>
<feMorphology radius="3" operator="erode" in="SourceAlpha" result="effect3_dropShadow_3504_4804"/>
<feOffset dy="6"/>
<feGaussianBlur stdDeviation="3"/>
<feComposite in2="hardAlpha" operator="out"/>
<feColorMatrix type="matrix" values="0 0 0 0 0.2 0 0 0 0 0.2 0 0 0 0 0.2 0 0 0 0.04 0"/>
<feBlend mode="normal" in2="effect2_dropShadow_3504_4804" result="effect3_dropShadow_3504_4804"/>
<feColorMatrix in="SourceAlpha" type="matrix" values="0 0 0 0 0 0 0 0 0 0 0 0 0 0 0 0 0 0 127 0" result="hardAlpha"/>
<feMorphology radius="6" operator="erode" in="SourceAlpha" result="effect4_dropShadow_3504_4804"/>
<feOffset dy="12"/>
<feGaussianBlur stdDeviation="6"/>
<feComposite in2="hardAlpha" operator="out"/>
<feColorMatrix type="matrix" values="0 0 0 0 0.2 0 0 0 0 0.2 0 0 0 0 0.2 0 0 0 0.04 0"/>
<feBlend mode="normal" in2="effect3_dropShadow_3504_4804" result="effect4_dropShadow_3504_4804"/>
<feColorMatrix in="SourceAlpha" type="matrix" values="0 0 0 0 0 0 0 0 0 0 0 0 0 0 0 0 0 0 127 0" result="hardAlpha"/>
<feMorphology radius="12" operator="erode" in="SourceAlpha" result="effect5_dropShadow_3504_4804"/>
<feOffset dy="24"/>
<feGaussianBlur stdDeviation="12"/>
<feComposite in2="hardAlpha" operator="out"/>
<feColorMatrix type="matrix" values="0 0 0 0 0.2 0 0 0 0 0.2 0 0 0 0 0.2 0 0 0 0.04 0"/>
<feBlend mode="normal" in2="effect4_dropShadow_3504_4804" result="effect5_dropShadow_3504_4804"/>
<feColorMatrix in="SourceAlpha" type="matrix" values="0 0 0 0 0 0 0 0 0 0 0 0 0 0 0 0 0 0 127 0" result="hardAlpha"/>
<feMorphology radius="24" operator="erode" in="SourceAlpha" result="effect6_dropShadow_3504_4804"/>
<feOffset dy="48"/>
<feGaussianBlur stdDeviation="24"/>
<feComposite in2="hardAlpha" operator="out"/>
<feColorMatrix type="matrix" values="0 0 0 0 0.2 0 0 0 0 0.2 0 0 0 0 0.2 0 0 0 0.04 0"/>
<feBlend mode="normal" in2="effect5_dropShadow_3504_4804" result="effect6_dropShadow_3504_4804"/>
<feColorMatrix in="SourceAlpha" type="matrix" values="0 0 0 0 0 0 0 0 0 0 0 0 0 0 0 0 0 0 127 0" result="hardAlpha"/>
<feMorphology radius="0.5" operator="erode" in="SourceAlpha" result="effect7_dropShadow_3504_4804"/>
<feOffset dy="-1"/>
<feGaussianBlur stdDeviation="0.5"/>
<feComposite in2="hardAlpha" operator="out"/>
<feColorMatrix type="matrix" values="0 0 0 0 0.2 0 0 0 0 0.2 0 0 0 0 0.2 0 0 0 0.06 0"/>
<feBlend mode="normal" in2="effect6_dropShadow_3504_4804" result="effect7_dropShadow_3504_4804"/>
<feBlend mode="normal" in="SourceGraphic" in2="effect7_dropShadow_3504_4804" result="shape"/>
</filter>
<filter id="filter3_ddddddd_3504_4804" x="16" y="97.5" width="156" height="121.5" filterUnits="userSpaceOnUse" color-interpolation-filters="sRGB">
<feFlood flood-opacity="0" result="BackgroundImageFix"/>
<feColorMatrix in="SourceAlpha" type="matrix" values="0 0 0 0 0 0 0 0 0 0 0 0 0 0 0 0 0 0 127 0" result="hardAlpha"/>
<feMorphology radius="0.5" operator="dilate" in="SourceAlpha" result="effect1_dropShadow_3504_4804"/>
<feOffset dy="1"/>
<feGaussianBlur stdDeviation="0.5"/>
<feComposite in2="hardAlpha" operator="out"/>
<feColorMatrix type="matrix" values="0 0 0 0 0.2 0 0 0 0 0.2 0 0 0 0 0.2 0 0 0 0.04 0"/>
<feBlend mode="normal" in2="BackgroundImageFix" result="effect1_dropShadow_3504_4804"/>
<feColorMatrix in="SourceAlpha" type="matrix" values="0 0 0 0 0 0 0 0 0 0 0 0 0 0 0 0 0 0 127 0" result="hardAlpha"/>
<feMorphology radius="1.5" operator="erode" in="SourceAlpha" result="effect2_dropShadow_3504_4804"/>
<feOffset dy="3"/>
<feGaussianBlur stdDeviation="1.5"/>
<feComposite in2="hardAlpha" operator="out"/>
<feColorMatrix type="matrix" values="0 0 0 0 0.2 0 0 0 0 0.2 0 0 0 0 0.2 0 0 0 0.02 0"/>
<feBlend mode="normal" in2="effect1_dropShadow_3504_4804" result="effect2_dropShadow_3504_4804"/>
<feColorMatrix in="SourceAlpha" type="matrix" values="0 0 0 0 0 0 0 0 0 0 0 0 0 0 0 0 0 0 127 0" result="hardAlpha"/>
<feMorphology radius="3" operator="erode" in="SourceAlpha" result="effect3_dropShadow_3504_4804"/>
<feOffset dy="6"/>
<feGaussianBlur stdDeviation="3"/>
<feComposite in2="hardAlpha" operator="out"/>
<feColorMatrix type="matrix" values="0 0 0 0 0.2 0 0 0 0 0.2 0 0 0 0 0.2 0 0 0 0.04 0"/>
<feBlend mode="normal" in2="effect2_dropShadow_3504_4804" result="effect3_dropShadow_3504_4804"/>
<feColorMatrix in="SourceAlpha" type="matrix" values="0 0 0 0 0 0 0 0 0 0 0 0 0 0 0 0 0 0 127 0" result="hardAlpha"/>
<feMorphology radius="6" operator="erode" in="SourceAlpha" result="effect4_dropShadow_3504_4804"/>
<feOffset dy="12"/>
<feGaussianBlur stdDeviation="6"/>
<feComposite in2="hardAlpha" operator="out"/>
<feColorMatrix type="matrix" values="0 0 0 0 0.2 0 0 0 0 0.2 0 0 0 0 0.2 0 0 0 0.04 0"/>
<feBlend mode="normal" in2="effect3_dropShadow_3504_4804" result="effect4_dropShadow_3504_4804"/>
<feColorMatrix in="SourceAlpha" type="matrix" values="0 0 0 0 0 0 0 0 0 0 0 0 0 0 0 0 0 0 127 0" result="hardAlpha"/>
<feMorphology radius="12" operator="erode" in="SourceAlpha" result="effect5_dropShadow_3504_4804"/>
<feOffset dy="24"/>
<feGaussianBlur stdDeviation="12"/>
<feComposite in2="hardAlpha" operator="out"/>
<feColorMatrix type="matrix" values="0 0 0 0 0.2 0 0 0 0 0.2 0 0 0 0 0.2 0 0 0 0.04 0"/>
<feBlend mode="normal" in2="effect4_dropShadow_3504_4804" result="effect5_dropShadow_3504_4804"/>
<feColorMatrix in="SourceAlpha" type="matrix" values="0 0 0 0 0 0 0 0 0 0 0 0 0 0 0 0 0 0 127 0" result="hardAlpha"/>
<feMorphology radius="24" operator="erode" in="SourceAlpha" result="effect6_dropShadow_3504_4804"/>
<feOffset dy="48"/>
<feGaussianBlur stdDeviation="24"/>
<feComposite in2="hardAlpha" operator="out"/>
<feColorMatrix type="matrix" values="0 0 0 0 0.2 0 0 0 0 0.2 0 0 0 0 0.2 0 0 0 0.04 0"/>
<feBlend mode="normal" in2="effect5_dropShadow_3504_4804" result="effect6_dropShadow_3504_4804"/>
<feColorMatrix in="SourceAlpha" type="matrix" values="0 0 0 0 0 0 0 0 0 0 0 0 0 0 0 0 0 0 127 0" result="hardAlpha"/>
<feMorphology radius="0.5" operator="erode" in="SourceAlpha" result="effect7_dropShadow_3504_4804"/>
<feOffset dy="-1"/>
<feGaussianBlur stdDeviation="0.5"/>
<feComposite in2="hardAlpha" operator="out"/>
<feColorMatrix type="matrix" values="0 0 0 0 0.2 0 0 0 0 0.2 0 0 0 0 0.2 0 0 0 0.06 0"/>
<feBlend mode="normal" in2="effect6_dropShadow_3504_4804" result="effect7_dropShadow_3504_4804"/>
<feBlend mode="normal" in="SourceGraphic" in2="effect7_dropShadow_3504_4804" result="shape"/>
</filter>
<filter id="filter4_ddddddd_3504_4804" x="128" y="97.5" width="96" height="121.5" filterUnits="userSpaceOnUse" color-interpolation-filters="sRGB">
<feFlood flood-opacity="0" result="BackgroundImageFix"/>
<feColorMatrix in="SourceAlpha" type="matrix" values="0 0 0 0 0 0 0 0 0 0 0 0 0 0 0 0 0 0 127 0" result="hardAlpha"/>
<feMorphology radius="0.5" operator="dilate" in="SourceAlpha" result="effect1_dropShadow_3504_4804"/>
<feOffset dy="1"/>
<feGaussianBlur stdDeviation="0.5"/>
<feComposite in2="hardAlpha" operator="out"/>
<feColorMatrix type="matrix" values="0 0 0 0 0.2 0 0 0 0 0.2 0 0 0 0 0.2 0 0 0 0.04 0"/>
<feBlend mode="normal" in2="BackgroundImageFix" result="effect1_dropShadow_3504_4804"/>
<feColorMatrix in="SourceAlpha" type="matrix" values="0 0 0 0 0 0 0 0 0 0 0 0 0 0 0 0 0 0 127 0" result="hardAlpha"/>
<feMorphology radius="1.5" operator="erode" in="SourceAlpha" result="effect2_dropShadow_3504_4804"/>
<feOffset dy="3"/>
<feGaussianBlur stdDeviation="1.5"/>
<feComposite in2="hardAlpha" operator="out"/>
<feColorMatrix type="matrix" values="0 0 0 0 0.2 0 0 0 0 0.2 0 0 0 0 0.2 0 0 0 0.02 0"/>
<feBlend mode="normal" in2="effect1_dropShadow_3504_4804" result="effect2_dropShadow_3504_4804"/>
<feColorMatrix in="SourceAlpha" type="matrix" values="0 0 0 0 0 0 0 0 0 0 0 0 0 0 0 0 0 0 127 0" result="hardAlpha"/>
<feMorphology radius="3" operator="erode" in="SourceAlpha" result="effect3_dropShadow_3504_4804"/>
<feOffset dy="6"/>
<feGaussianBlur stdDeviation="3"/>
<feComposite in2="hardAlpha" operator="out"/>
<feColorMatrix type="matrix" values="0 0 0 0 0.2 0 0 0 0 0.2 0 0 0 0 0.2 0 0 0 0.04 0"/>
<feBlend mode="normal" in2="effect2_dropShadow_3504_4804" result="effect3_dropShadow_3504_4804"/>
<feColorMatrix in="SourceAlpha" type="matrix" values="0 0 0 0 0 0 0 0 0 0 0 0 0 0 0 0 0 0 127 0" result="hardAlpha"/>
<feMorphology radius="6" operator="erode" in="SourceAlpha" result="effect4_dropShadow_3504_4804"/>
<feOffset dy="12"/>
<feGaussianBlur stdDeviation="6"/>
<feComposite in2="hardAlpha" operator="out"/>
<feColorMatrix type="matrix" values="0 0 0 0 0.2 0 0 0 0 0.2 0 0 0 0 0.2 0 0 0 0.04 0"/>
<feBlend mode="normal" in2="effect3_dropShadow_3504_4804" result="effect4_dropShadow_3504_4804"/>
<feColorMatrix in="SourceAlpha" type="matrix" values="0 0 0 0 0 0 0 0 0 0 0 0 0 0 0 0 0 0 127 0" result="hardAlpha"/>
<feMorphology radius="12" operator="erode" in="SourceAlpha" result="effect5_dropShadow_3504_4804"/>
<feOffset dy="24"/>
<feGaussianBlur stdDeviation="12"/>
<feComposite in2="hardAlpha" operator="out"/>
<feColorMatrix type="matrix" values="0 0 0 0 0.2 0 0 0 0 0.2 0 0 0 0 0.2 0 0 0 0.04 0"/>
<feBlend mode="normal" in2="effect4_dropShadow_3504_4804" result="effect5_dropShadow_3504_4804"/>
<feColorMatrix in="SourceAlpha" type="matrix" values="0 0 0 0 0 0 0 0 0 0 0 0 0 0 0 0 0 0 127 0" result="hardAlpha"/>
<feMorphology radius="24" operator="erode" in="SourceAlpha" result="effect6_dropShadow_3504_4804"/>
<feOffset dy="48"/>
<feGaussianBlur stdDeviation="24"/>
<feComposite in2="hardAlpha" operator="out"/>
<feColorMatrix type="matrix" values="0 0 0 0 0.2 0 0 0 0 0.2 0 0 0 0 0.2 0 0 0 0.04 0"/>
<feBlend mode="normal" in2="effect5_dropShadow_3504_4804" result="effect6_dropShadow_3504_4804"/>
<feColorMatrix in="SourceAlpha" type="matrix" values="0 0 0 0 0 0 0 0 0 0 0 0 0 0 0 0 0 0 127 0" result="hardAlpha"/>
<feMorphology radius="0.5" operator="erode" in="SourceAlpha" result="effect7_dropShadow_3504_4804"/>
<feOffset dy="-1"/>
<feGaussianBlur stdDeviation="0.5"/>
<feComposite in2="hardAlpha" operator="out"/>
<feColorMatrix type="matrix" values="0 0 0 0 0.2 0 0 0 0 0.2 0 0 0 0 0.2 0 0 0 0.06 0"/>
<feBlend mode="normal" in2="effect6_dropShadow_3504_4804" result="effect7_dropShadow_3504_4804"/>
<feBlend mode="normal" in="SourceGraphic" in2="effect7_dropShadow_3504_4804" result="shape"/>
</filter>
<filter id="filter5_ddddddd_3504_4804" x="88" y="45.5" width="96" height="121.5" filterUnits="userSpaceOnUse" color-interpolation-filters="sRGB">
<feFlood flood-opacity="0" result="BackgroundImageFix"/>
<feColorMatrix in="SourceAlpha" type="matrix" values="0 0 0 0 0 0 0 0 0 0 0 0 0 0 0 0 0 0 127 0" result="hardAlpha"/>
<feMorphology radius="0.5" operator="dilate" in="SourceAlpha" result="effect1_dropShadow_3504_4804"/>
<feOffset dy="1"/>
<feGaussianBlur stdDeviation="0.5"/>
<feComposite in2="hardAlpha" operator="out"/>
<feColorMatrix type="matrix" values="0 0 0 0 0.2 0 0 0 0 0.2 0 0 0 0 0.2 0 0 0 0.04 0"/>
<feBlend mode="normal" in2="BackgroundImageFix" result="effect1_dropShadow_3504_4804"/>
<feColorMatrix in="SourceAlpha" type="matrix" values="0 0 0 0 0 0 0 0 0 0 0 0 0 0 0 0 0 0 127 0" result="hardAlpha"/>
<feMorphology radius="1.5" operator="erode" in="SourceAlpha" result="effect2_dropShadow_3504_4804"/>
<feOffset dy="3"/>
<feGaussianBlur stdDeviation="1.5"/>
<feComposite in2="hardAlpha" operator="out"/>
<feColorMatrix type="matrix" values="0 0 0 0 0.2 0 0 0 0 0.2 0 0 0 0 0.2 0 0 0 0.02 0"/>
<feBlend mode="normal" in2="effect1_dropShadow_3504_4804" result="effect2_dropShadow_3504_4804"/>
<feColorMatrix in="SourceAlpha" type="matrix" values="0 0 0 0 0 0 0 0 0 0 0 0 0 0 0 0 0 0 127 0" result="hardAlpha"/>
<feMorphology radius="3" operator="erode" in="SourceAlpha" result="effect3_dropShadow_3504_4804"/>
<feOffset dy="6"/>
<feGaussianBlur stdDeviation="3"/>
<feComposite in2="hardAlpha" operator="out"/>
<feColorMatrix type="matrix" values="0 0 0 0 0.2 0 0 0 0 0.2 0 0 0 0 0.2 0 0 0 0.04 0"/>
<feBlend mode="normal" in2="effect2_dropShadow_3504_4804" result="effect3_dropShadow_3504_4804"/>
<feColorMatrix in="SourceAlpha" type="matrix" values="0 0 0 0 0 0 0 0 0 0 0 0 0 0 0 0 0 0 127 0" result="hardAlpha"/>
<feMorphology radius="6" operator="erode" in="SourceAlpha" result="effect4_dropShadow_3504_4804"/>
<feOffset dy="12"/>
<feGaussianBlur stdDeviation="6"/>
<feComposite in2="hardAlpha" operator="out"/>
<feColorMatrix type="matrix" values="0 0 0 0 0.2 0 0 0 0 0.2 0 0 0 0 0.2 0 0 0 0.04 0"/>
<feBlend mode="normal" in2="effect3_dropShadow_3504_4804" result="effect4_dropShadow_3504_4804"/>
<feColorMatrix in="SourceAlpha" type="matrix" values="0 0 0 0 0 0 0 0 0 0 0 0 0 0 0 0 0 0 127 0" result="hardAlpha"/>
<feMorphology radius="12" operator="erode" in="SourceAlpha" result="effect5_dropShadow_3504_4804"/>
<feOffset dy="24"/>
<feGaussianBlur stdDeviation="12"/>
<feComposite in2="hardAlpha" operator="out"/>
<feColorMatrix type="matrix" values="0 0 0 0 0.2 0 0 0 0 0.2 0 0 0 0 0.2 0 0 0 0.04 0"/>
<feBlend mode="normal" in2="effect4_dropShadow_3504_4804" result="effect5_dropShadow_3504_4804"/>
<feColorMatrix in="SourceAlpha" type="matrix" values="0 0 0 0 0 0 0 0 0 0 0 0 0 0 0 0 0 0 127 0" result="hardAlpha"/>
<feMorphology radius="24" operator="erode" in="SourceAlpha" result="effect6_dropShadow_3504_4804"/>
<feOffset dy="48"/>
<feGaussianBlur stdDeviation="24"/>
<feComposite in2="hardAlpha" operator="out"/>
<feColorMatrix type="matrix" values="0 0 0 0 0.2 0 0 0 0 0.2 0 0 0 0 0.2 0 0 0 0.04 0"/>
<feBlend mode="normal" in2="effect5_dropShadow_3504_4804" result="effect6_dropShadow_3504_4804"/>
<feColorMatrix in="SourceAlpha" type="matrix" values="0 0 0 0 0 0 0 0 0 0 0 0 0 0 0 0 0 0 127 0" result="hardAlpha"/>
<feMorphology radius="0.5" operator="erode" in="SourceAlpha" result="effect7_dropShadow_3504_4804"/>
<feOffset dy="-1"/>
<feGaussianBlur stdDeviation="0.5"/>
<feComposite in2="hardAlpha" operator="out"/>
<feColorMatrix type="matrix" values="0 0 0 0 0.2 0 0 0 0 0.2 0 0 0 0 0.2 0 0 0 0.06 0"/>
<feBlend mode="normal" in2="effect6_dropShadow_3504_4804" result="effect7_dropShadow_3504_4804"/>
<feBlend mode="normal" in="SourceGraphic" in2="effect7_dropShadow_3504_4804" result="shape"/>
</filter>
<filter id="filter6_ddddddd_3504_4804" x="36" y="45.5" width="96" height="121.5" filterUnits="userSpaceOnUse" color-interpolation-filters="sRGB">
<feFlood flood-opacity="0" result="BackgroundImageFix"/>
<feColorMatrix in="SourceAlpha" type="matrix" values="0 0 0 0 0 0 0 0 0 0 0 0 0 0 0 0 0 0 127 0" result="hardAlpha"/>
<feMorphology radius="0.5" operator="dilate" in="SourceAlpha" result="effect1_dropShadow_3504_4804"/>
<feOffset dy="1"/>
<feGaussianBlur stdDeviation="0.5"/>
<feComposite in2="hardAlpha" operator="out"/>
<feColorMatrix type="matrix" values="0 0 0 0 0.2 0 0 0 0 0.2 0 0 0 0 0.2 0 0 0 0.04 0"/>
<feBlend mode="normal" in2="BackgroundImageFix" result="effect1_dropShadow_3504_4804"/>
<feColorMatrix in="SourceAlpha" type="matrix" values="0 0 0 0 0 0 0 0 0 0 0 0 0 0 0 0 0 0 127 0" result="hardAlpha"/>
<feMorphology radius="1.5" operator="erode" in="SourceAlpha" result="effect2_dropShadow_3504_4804"/>
<feOffset dy="3"/>
<feGaussianBlur stdDeviation="1.5"/>
<feComposite in2="hardAlpha" operator="out"/>
<feColorMatrix type="matrix" values="0 0 0 0 0.2 0 0 0 0 0.2 0 0 0 0 0.2 0 0 0 0.02 0"/>
<feBlend mode="normal" in2="effect1_dropShadow_3504_4804" result="effect2_dropShadow_3504_4804"/>
<feColorMatrix in="SourceAlpha" type="matrix" values="0 0 0 0 0 0 0 0 0 0 0 0 0 0 0 0 0 0 127 0" result="hardAlpha"/>
<feMorphology radius="3" operator="erode" in="SourceAlpha" result="effect3_dropShadow_3504_4804"/>
<feOffset dy="6"/>
<feGaussianBlur stdDeviation="3"/>
<feComposite in2="hardAlpha" operator="out"/>
<feColorMatrix type="matrix" values="0 0 0 0 0.2 0 0 0 0 0.2 0 0 0 0 0.2 0 0 0 0.04 0"/>
<feBlend mode="normal" in2="effect2_dropShadow_3504_4804" result="effect3_dropShadow_3504_4804"/>
<feColorMatrix in="SourceAlpha" type="matrix" values="0 0 0 0 0 0 0 0 0 0 0 0 0 0 0 0 0 0 127 0" result="hardAlpha"/>
<feMorphology radius="6" operator="erode" in="SourceAlpha" result="effect4_dropShadow_3504_4804"/>
<feOffset dy="12"/>
<feGaussianBlur stdDeviation="6"/>
<feComposite in2="hardAlpha" operator="out"/>
<feColorMatrix type="matrix" values="0 0 0 0 0.2 0 0 0 0 0.2 0 0 0 0 0.2 0 0 0 0.04 0"/>
<feBlend mode="normal" in2="effect3_dropShadow_3504_4804" result="effect4_dropShadow_3504_4804"/>
<feColorMatrix in="SourceAlpha" type="matrix" values="0 0 0 0 0 0 0 0 0 0 0 0 0 0 0 0 0 0 127 0" result="hardAlpha"/>
<feMorphology radius="12" operator="erode" in="SourceAlpha" result="effect5_dropShadow_3504_4804"/>
<feOffset dy="24"/>
<feGaussianBlur stdDeviation="12"/>
<feComposite in2="hardAlpha" operator="out"/>
<feColorMatrix type="matrix" values="0 0 0 0 0.2 0 0 0 0 0.2 0 0 0 0 0.2 0 0 0 0.04 0"/>
<feBlend mode="normal" in2="effect4_dropShadow_3504_4804" result="effect5_dropShadow_3504_4804"/>
<feColorMatrix in="SourceAlpha" type="matrix" values="0 0 0 0 0 0 0 0 0 0 0 0 0 0 0 0 0 0 127 0" result="hardAlpha"/>
<feMorphology radius="24" operator="erode" in="SourceAlpha" result="effect6_dropShadow_3504_4804"/>
<feOffset dy="48"/>
<feGaussianBlur stdDeviation="24"/>
<feComposite in2="hardAlpha" operator="out"/>
<feColorMatrix type="matrix" values="0 0 0 0 0.2 0 0 0 0 0.2 0 0 0 0 0.2 0 0 0 0.04 0"/>
<feBlend mode="normal" in2="effect5_dropShadow_3504_4804" result="effect6_dropShadow_3504_4804"/>
<feColorMatrix in="SourceAlpha" type="matrix" values="0 0 0 0 0 0 0 0 0 0 0 0 0 0 0 0 0 0 127 0" result="hardAlpha"/>
<feMorphology radius="0.5" operator="erode" in="SourceAlpha" result="effect7_dropShadow_3504_4804"/>
<feOffset dy="-1"/>
<feGaussianBlur stdDeviation="0.5"/>
<feComposite in2="hardAlpha" operator="out"/>
<feColorMatrix type="matrix" values="0 0 0 0 0.2 0 0 0 0 0.2 0 0 0 0 0.2 0 0 0 0.06 0"/>
<feBlend mode="normal" in2="effect6_dropShadow_3504_4804" result="effect7_dropShadow_3504_4804"/>
<feBlend mode="normal" in="SourceGraphic" in2="effect7_dropShadow_3504_4804" result="shape"/>
</filter>
<clipPath id="clip0_3504_4804">
<rect x="79.5723" y="165.69" width="20.8552" height="18.6207" rx="2.7" fill="white"/>
</clipPath>
<clipPath id="clip1_3504_4804">
<rect x="179.285" y="62.2854" width="17.429" height="17.429" rx="2.43" fill="white"/>
</clipPath>
<clipPath id="clip2_3504_4804">
<rect x="132" y="166.435" width="19.3655" height="17.131" rx="2.7" fill="white"/>
</clipPath>
<clipPath id="clip3_3504_4804">
<rect x="166.951" y="113.28" width="18.0993" height="19.44" rx="2.43" fill="white"/>
</clipPath>
</defs>
</svg>
